<svg width="24" height="24" viewBox="0 0 24 24" fill="none" xmlns="http://www.w3.org/2000/svg">
<path d="M13.1415 5.0386L14.4026 5.71436L15.0921 6.94965L15.1794 7.10608L15.2667 6.94965L15.9563 5.71436L17.2173 5.0386L17.3818 4.95045L17.2173 4.86231L15.9563 4.18655L15.2667 2.95126L15.1794 2.79483L15.0921 2.95126L14.4026 4.18655L13.1415 4.86231L12.9771 4.95045L13.1415 5.0386ZM12.6603 3.12502L12.7494 2.97417H12.5742H11.0116C5.98119 2.97417 1.9 6.97003 1.9 11.9038C1.9 16.8375 5.98119 20.8333 11.0116 20.8333C15.035 20.8333 18.4477 18.278 19.6555 14.7341L20.1448 13.2984L20.2003 13.1358L20.0315 13.1679L18.5157 13.4566L18.5156 13.4567C17.6157 13.6297 16.688 13.6053 15.799 13.3853C14.9099 13.1653 14.0818 12.7551 13.374 12.1844C12.6662 11.6137 12.0964 10.8967 11.7053 10.0849C11.3142 9.27303 11.1114 8.38652 11.1116 7.48898C11.1116 6.34716 11.3668 5.31462 11.8781 4.44948L11.8781 4.44946L12.6603 3.12502ZM18.7587 6.92455L18.6714 6.76825L18.5841 6.92455L17.7747 8.37355L16.2956 9.16675L16.1312 9.25488L16.2956 9.343L17.7747 10.1362L18.5841 11.5852L18.6714 11.7415L18.7587 11.5852L19.5681 10.1362L21.0473 9.343L21.2116 9.25488L21.0473 9.16675L19.5681 8.37355L18.7587 6.92455ZM6.44034 6.57104C7.30662 5.85795 8.33362 5.35815 9.43559 5.11235C9.21314 5.8737 9.10926 6.67303 9.10926 7.48896C9.10919 9.61292 9.96595 11.6504 11.4921 13.1575C12.9771 14.6239 14.9787 15.4725 17.0809 15.5324C16.4933 16.4747 15.6847 17.2675 14.7211 17.8442C13.7076 18.4509 12.555 18.7992 11.3685 18.8572C10.182 18.9152 8.9997 18.6811 7.92951 18.1762C6.85933 17.6714 5.9355 16.9121 5.24223 15.9677C4.54897 15.0234 4.1083 13.9241 3.96031 12.7703C3.81231 11.6165 3.96166 10.4447 4.39479 9.36182C4.82793 8.27897 5.53112 7.31947 6.44034 6.57104Z" fill="#868D96" stroke="#868D96" stroke-width="0.2"/>
</svg>
