<svg width="95" height="53" viewBox="0 0 95 53" fill="none" xmlns="http://www.w3.org/2000/svg">
<path d="M23.1844 52.7104C20.542 52.0388 18.7227 50.272 16.9492 48.344C12.0676 43.0435 7.10237 37.8154 2.1685 32.5604C1.04261 31.3618 0.441021 30.0145 0.848347 28.3469C1.25776 26.6689 2.28966 25.5468 3.96283 25.0819C5.62764 24.619 7.1525 24.9682 8.35568 26.2184C10.6994 28.6548 13.0013 31.1304 15.3137 33.5936C18.1942 36.6623 21.0664 39.7351 23.9448 42.8038C24.1537 43.027 24.3667 43.244 24.6529 43.5415C25.1647 42.9939 25.6284 42.4959 26.0921 42C38.667 28.5928 51.2482 15.1897 63.8126 1.77426C65.1516 0.344269 66.6973 -0.364526 68.6462 0.187218C71.8275 1.08613 72.9764 4.76443 70.804 7.26071C68.9261 9.41809 66.9146 11.4598 64.9573 13.5489C53.6587 25.6005 42.3476 37.6418 31.0657 49.7079C29.6787 51.1916 28.016 52.1297 26.1026 52.7104H23.1844Z" fill="#24D998"/>
<path d="M49.6366 51.4893C47.7608 51.4521 46.3613 50.6089 45.5884 48.9351C44.7779 47.1807 45.0683 45.5069 46.3968 44.0789C50.5097 39.665 54.6436 35.2675 58.7711 30.866C67.8765 21.1578 76.9839 11.4495 86.0912 1.74337C88.0652 -0.360284 90.8037 -0.581396 92.7192 1.19576C94.5532 2.89646 94.6075 5.60145 92.7965 7.54599C88.8736 11.7616 84.9319 15.9585 80.9903 20.1597C71.7408 30.0187 62.4872 39.8696 53.244 49.7348C52.2581 50.7887 51.1468 51.5182 49.6324 51.4893H49.6366Z" fill="#24D998"/>
</svg>
