<svg width="24" height="24" viewBox="0 0 24 24" fill="none" xmlns="http://www.w3.org/2000/svg">
<path fill-rule="evenodd" clip-rule="evenodd" d="M7.5 3H19.5V6H7.5V3ZM5.25 7.5H20.25C20.664 7.5 21 7.836 21 8.25V20.25C21 20.664 20.664 21 20.25 21H6C4.34325 21 3 19.6567 3 18V6.75C3 5.50725 4.00725 4.5 5.25 4.5H6V6H5.25C4.83675 6 4.5 6.33675 4.5 6.75C4.5 7.16325 4.83675 7.5 5.25 7.5ZM15 14.25C15 15.0787 15.6713 15.75 16.5 15.75C17.3287 15.75 18 15.0787 18 14.25C18 13.4213 17.3287 12.75 16.5 12.75C15.6713 12.75 15 13.4213 15 14.25Z" fill="#1B65FF"/>
</svg>
