<svg width="20" height="20" viewBox="0 0 20 20" fill="none" xmlns="http://www.w3.org/2000/svg">
<g clip-path="url(#clip0_1790_5898)">
<path d="M15.8333 4.16797C16.2538 4.16784 16.6588 4.32664 16.9671 4.61255C17.2754 4.89846 17.4643 5.29034 17.4958 5.70964L17.5 5.83464V15.8346C17.5001 16.2551 17.3413 16.6601 17.0554 16.9684C16.7695 17.2767 16.3776 17.4656 15.9583 17.4971L15.8333 17.5013H4.16667C3.74619 17.5014 3.34119 17.3426 3.03288 17.0567C2.72456 16.7708 2.5357 16.3789 2.50417 15.9596L2.5 15.8346V5.83464C2.49987 5.41416 2.65867 5.00916 2.94458 4.70085C3.23049 4.39253 3.62237 4.20367 4.04167 4.17214L4.16667 4.16797H15.8333ZM15.8333 5.83464H4.16667V15.8346H4.94167L11.865 8.9113C12.0603 8.71615 12.3251 8.60652 12.6012 8.60652C12.8774 8.60652 13.1422 8.71615 13.3375 8.9113L15.8333 11.4063V5.83464ZM12.6008 10.5313L7.2975 15.8346H15.8333V13.7638L12.6008 10.5313ZM7.08333 7.5013C7.41485 7.5013 7.7328 7.633 7.96722 7.86742C8.20164 8.10184 8.33333 8.41978 8.33333 8.7513C8.33333 9.08282 8.20164 9.40077 7.96722 9.63519C7.7328 9.86961 7.41485 10.0013 7.08333 10.0013C6.75181 10.0013 6.43387 9.86961 6.19945 9.63519C5.96503 9.40077 5.83333 9.08282 5.83333 8.7513C5.83333 8.41978 5.96503 8.10184 6.19945 7.86742C6.43387 7.633 6.75181 7.5013 7.08333 7.5013ZM15 1.66797C15.221 1.66797 15.433 1.75577 15.5893 1.91205C15.7455 2.06833 15.8333 2.28029 15.8333 2.5013C15.8333 2.72232 15.7455 2.93428 15.5893 3.09056C15.433 3.24684 15.221 3.33464 15 3.33464H5C4.77899 3.33464 4.56702 3.24684 4.41074 3.09056C4.25446 2.93428 4.16667 2.72232 4.16667 2.5013C4.16667 2.28029 4.25446 2.06833 4.41074 1.91205C4.56702 1.75577 4.77899 1.66797 5 1.66797H15Z" fill="#1B65FF"/>
</g>
<defs>
<clipPath id="clip0_1790_5898">
<rect width="20" height="20" fill="white"/>
</clipPath>
</defs>
</svg>
