<svg width="20" height="20" viewBox="0 0 20 20" fill="none" xmlns="http://www.w3.org/2000/svg">
<g clip-path="url(#clip0_1790_13875)">
<path d="M15.8333 4.16602C16.2538 4.16588 16.6588 4.32469 16.9671 4.6106C17.2754 4.89651 17.4643 5.28839 17.4958 5.70768L17.5 5.83268V15.8327C17.5001 16.2532 17.3413 16.6582 17.0554 16.9665C16.7695 17.2748 16.3776 17.4636 15.9583 17.4952L15.8333 17.4993H4.16667C3.74619 17.4995 3.34119 17.3407 3.03288 17.0548C2.72456 16.7689 2.5357 16.377 2.50417 15.9577L2.5 15.8327V5.83268C2.49987 5.4122 2.65867 5.00721 2.94458 4.69889C3.23049 4.39057 3.62237 4.20172 4.04167 4.17018L4.16667 4.16602H15.8333ZM15.8333 5.83268H4.16667V15.8327H4.94167L11.865 8.90935C12.0603 8.71419 12.3251 8.60457 12.6012 8.60457C12.8774 8.60457 13.1422 8.71419 13.3375 8.90935L15.8333 11.4043V5.83268ZM12.6008 10.5293L7.2975 15.8327H15.8333V13.7618L12.6008 10.5293ZM7.08333 7.49935C7.41485 7.49935 7.7328 7.63104 7.96722 7.86547C8.20164 8.09989 8.33333 8.41783 8.33333 8.74935C8.33333 9.08087 8.20164 9.39881 7.96722 9.63323C7.7328 9.86765 7.41485 9.99935 7.08333 9.99935C6.75181 9.99935 6.43387 9.86765 6.19945 9.63323C5.96503 9.39881 5.83333 9.08087 5.83333 8.74935C5.83333 8.41783 5.96503 8.09989 6.19945 7.86547C6.43387 7.63104 6.75181 7.49935 7.08333 7.49935ZM15 1.66602C15.221 1.66602 15.433 1.75381 15.5893 1.91009C15.7455 2.06637 15.8333 2.27834 15.8333 2.49935C15.8333 2.72036 15.7455 2.93232 15.5893 3.0886C15.433 3.24488 15.221 3.33268 15 3.33268H5C4.77899 3.33268 4.56702 3.24488 4.41074 3.0886C4.25446 2.93232 4.16667 2.72036 4.16667 2.49935C4.16667 2.27834 4.25446 2.06637 4.41074 1.91009C4.56702 1.75381 4.77899 1.66602 5 1.66602H15Z" fill="#686D74"/>
</g>
<defs>
<clipPath id="clip0_1790_13875">
<rect width="20" height="20" fill="white"/>
</clipPath>
</defs>
</svg>
