<svg width="20" height="20" viewBox="0 0 20 20" fill="none" xmlns="http://www.w3.org/2000/svg">
<path d="M15.75 5.0013C15.5833 4.5013 15.0833 4.16797 14.5833 4.16797H5.41667C4.83333 4.16797 4.41667 4.5013 4.25 5.0013L2.5 10.0013V16.668C2.5 17.0846 2.91667 17.5013 3.33333 17.5013H4.16667C4.66667 17.5013 5 17.0846 5 16.668V15.8346H15V16.668C15 17.0846 15.4167 17.5013 15.8333 17.5013H16.6667C17.0833 17.5013 17.5 17.0846 17.5 16.668V10.0013L15.75 5.0013ZM5.66667 5.83464H14.25L15.1667 8.33464H4.83333L5.66667 5.83464ZM15.8333 14.168H4.16667V10.0013H15.8333V14.168ZM6.25 10.8346C6.91667 10.8346 7.5 11.418 7.5 12.0846C7.5 12.7513 6.91667 13.3346 6.25 13.3346C5.58333 13.3346 5 12.7513 5 12.0846C5 11.418 5.58333 10.8346 6.25 10.8346ZM13.75 10.8346C14.4167 10.8346 15 11.418 15 12.0846C15 12.7513 14.4167 13.3346 13.75 13.3346C13.0833 13.3346 12.5 12.7513 12.5 12.0846C12.5 11.418 13.0833 10.8346 13.75 10.8346Z" fill="#686D74"/>
</svg>
