<svg width="24" height="25" viewBox="0 0 24 25" fill="none" xmlns="http://www.w3.org/2000/svg">
<path d="M13.1415 5.5386L14.4026 6.21436L15.0921 7.44965L15.1794 7.60608L15.2667 7.44965L15.9563 6.21436L17.2173 5.5386L17.3818 5.45045L17.2173 5.36231L15.9563 4.68655L15.2667 3.45126L15.1794 3.29483L15.0921 3.45126L14.4026 4.68655L13.1415 5.36231L12.9771 5.45045L13.1415 5.5386ZM12.6603 3.62502L12.7494 3.47417H12.5742H11.0116C5.98119 3.47417 1.9 7.47003 1.9 12.4038C1.9 17.3375 5.98119 21.3333 11.0116 21.3333C15.035 21.3333 18.4477 18.778 19.6555 15.2341L20.1448 13.7984L20.2003 13.6358L20.0315 13.6679L18.5157 13.9566L18.5156 13.9567C17.6157 14.1297 16.688 14.1053 15.799 13.8853C14.9099 13.6653 14.0818 13.2551 13.374 12.6844C12.6662 12.1137 12.0964 11.3967 11.7053 10.5849C11.3142 9.77303 11.1114 8.88652 11.1116 7.98898C11.1116 6.84716 11.3668 5.81462 11.8781 4.94948L11.8781 4.94946L12.6603 3.62502ZM18.7587 7.42455L18.6714 7.26825L18.5841 7.42455L17.7747 8.87355L16.2956 9.66675L16.1312 9.75488L16.2956 9.843L17.7747 10.6362L18.5841 12.0852L18.6714 12.2415L18.7587 12.0852L19.5681 10.6362L21.0473 9.843L21.2116 9.75488L21.0473 9.66675L19.5681 8.87355L18.7587 7.42455ZM6.44034 7.07104C7.30662 6.35795 8.33362 5.85815 9.43559 5.61235C9.21314 6.3737 9.10926 7.17303 9.10926 7.98896C9.10919 10.1129 9.96595 12.1504 11.4921 13.6575C12.9771 15.1239 14.9787 15.9725 17.0809 16.0324C16.4933 16.9747 15.6847 17.7675 14.7211 18.3442C13.7076 18.9509 12.555 19.2992 11.3685 19.3572C10.182 19.4152 8.9997 19.1811 7.92951 18.6762C6.85933 18.1714 5.9355 17.4121 5.24223 16.4677C4.54897 15.5234 4.1083 14.4241 3.96031 13.2703C3.81231 12.1165 3.96166 10.9447 4.39479 9.86182C4.82793 8.77897 5.53112 7.81947 6.44034 7.07104Z" fill="#868D96" stroke="#868D96" stroke-width="0.2"/>
</svg>
