<svg width="32" height="32" viewBox="0 0 32 32" fill="none" xmlns="http://www.w3.org/2000/svg">
<path d="M27.5 16C27.5009 14.9394 27.3544 13.8838 27.0647 12.8635L26.9616 12.5H26.5838H21.77H21.1869L21.2759 13.0762C21.5748 15.014 21.5748 16.9861 21.2759 18.9238L21.1869 19.5H21.77H26.5838H26.9616L27.0647 19.1366C27.3544 18.1162 27.5009 17.0606 27.5 16ZM27.5 16C27.5 16.0001 27.5 16.0003 27.5 16.0004L27 16L27.5 15.9996C27.5 15.9997 27.5 15.9999 27.5 16ZM4.50001 16C4.49912 17.0606 4.64561 18.1162 4.93526 19.1366L5.03844 19.5H5.41626H10.23H10.8131L10.7242 18.9238C10.4252 16.9861 10.4252 15.014 10.7242 13.0762L10.8131 12.5H10.23H5.41626H5.03844L4.93526 12.8635C4.64561 13.8838 4.49912 14.9394 4.50001 16ZM4.50001 16C4.50001 15.9999 4.50001 15.9997 4.50001 15.9996L5.00001 16L4.50001 16.0004C4.50001 16.0003 4.50001 16.0001 4.50001 16ZM10.23 19H9.72424C9.72806 19.0254 9.73193 19.0508 9.73585 19.0762L10.23 19ZM10.23 19V18.5H10.1594C10.1808 18.6669 10.2043 18.8336 10.23 19ZM10.23 13V13.5H10.1594C10.1808 13.3331 10.2043 13.1664 10.23 13ZM10.23 13L9.73585 12.9238C9.73193 12.9492 9.72806 12.9746 9.72424 13H10.23ZM12.75 20.5H12.0744L12.2718 21.1461C12.9352 23.3168 14.0853 25.3074 15.6346 26.9663L15.9999 27.3574L16.3653 26.9664C17.9154 25.308 19.0657 23.3171 19.7282 21.1459L19.9254 20.5H19.25H12.75ZM11.7698 19.0852L11.8416 19.5H12.2625H19.7475H20.1684L20.2402 19.0852C20.5934 17.0436 20.5934 14.9564 20.2402 12.9148L20.1684 12.5H19.7475H12.2625H11.8416L11.7698 12.9148C11.4166 14.9564 11.4166 17.0436 11.7698 19.0852ZM19.25 11.5H19.9256L19.7282 10.8539C19.0648 8.68319 17.9147 6.69257 16.3654 5.03373L16.0002 4.64261L15.6347 5.03358C14.0847 6.69198 12.9344 8.68288 12.2718 10.8541L12.0747 11.5H12.75H19.25ZM20.8564 11.1315L20.9568 11.5H21.3388H25.7913H25.7963H26.6141L26.2413 10.7721C25.4831 9.2917 24.4137 7.99278 23.1066 6.96436C21.7994 5.93594 20.2853 5.20233 18.668 4.81383L17.3184 4.48961L18.1513 5.60002C19.3939 7.25667 20.3117 9.13353 20.8564 11.1315ZM13.8487 5.60002L14.6816 4.48961L13.332 4.81383C11.7147 5.20233 10.2006 5.93594 8.89345 6.96436C7.58627 7.99278 6.51693 9.2917 5.75873 10.7721L5.38591 11.5H6.20376H10.6613H11.0432L11.1437 11.1315C11.6883 9.13352 12.6061 7.25667 13.8487 5.60002ZM6.20376 20.5H5.38591L5.75873 21.2279C6.51693 22.7083 7.58627 24.0072 8.89345 25.0356C10.2006 26.0641 11.7147 26.7977 13.332 27.1862L14.6816 27.5104L13.8487 26.4C12.6061 24.7433 11.6883 22.8665 11.1437 20.8685L11.0432 20.5H10.6613H6.20376ZM18.1513 26.4L17.3184 27.5104L18.668 27.1862C20.2853 26.7977 21.7994 26.0641 23.1066 25.0356C24.4137 24.0072 25.4831 22.7083 26.2413 21.2279L26.6141 20.5H25.7963H21.3388H20.9568L20.8564 20.8685C20.3117 22.8665 19.3939 24.7433 18.1513 26.4ZM9.05538 5.60663C11.1109 4.23317 13.5275 3.50006 15.9997 3.5C19.3138 3.50389 22.491 4.82213 24.8345 7.16555C27.1779 9.50904 28.4962 12.6864 28.5 16.0006C28.4999 18.4726 27.7668 20.8892 26.3934 22.9446C25.0199 25.0002 23.0676 26.6024 20.7835 27.5485C18.4995 28.4946 15.9861 28.7421 13.5614 28.2598C11.1366 27.7775 8.90933 26.587 7.16117 24.8388C5.41301 23.0907 4.22251 20.8634 3.74019 18.4386C3.25787 16.0139 3.50542 13.5005 4.45151 11.2165C5.39761 8.93238 6.99976 6.98015 9.05538 5.60663Z" fill="#1B65FF" stroke="#1B65FF"/>
</svg>
