<svg width="20" height="20" viewBox="0 0 20 20" fill="none" xmlns="http://www.w3.org/2000/svg">
<path d="M8.79185 2.39561L3.82935 5.15061C3.44195 5.36637 3.11943 5.68199 2.89535 6.06465C2.67126 6.4473 2.55381 6.88301 2.55519 7.32644V12.6714C2.55395 13.1147 2.67148 13.5503 2.89556 13.9328C3.11963 14.3153 3.44207 14.6307 3.82935 14.8464L8.79352 17.6023C9.16275 17.8079 9.57839 17.9159 10.001 17.9159C10.4237 17.9159 10.8393 17.8079 11.2085 17.6023L16.1727 14.8473C16.5601 14.6315 16.8826 14.3159 17.1067 13.9332C17.3308 13.5506 17.4482 13.1149 17.4469 12.6714V7.32644C17.4481 6.88315 17.3306 6.44761 17.1065 6.06512C16.8824 5.68263 16.56 5.36713 16.1727 5.15144L11.2085 2.39561C10.8393 2.18997 10.4237 2.08203 10.001 2.08203C9.57839 2.08203 9.16275 2.18997 8.79352 2.39561H8.79185Z" stroke="#686D74" stroke-width="1.5"/>
<path d="M16.9419 5.82812L10.0003 9.99813M10.0003 9.99813L3.05859 5.82812M10.0003 9.99813V17.9065" stroke="#686D74" stroke-width="1.5"/>
</svg>
