<svg width="22" height="22" viewBox="0 0 22 22" fill="none" xmlns="http://www.w3.org/2000/svg">
<path fill-rule="evenodd" clip-rule="evenodd" d="M1.6665 14.9973C1.93172 14.9973 2.18607 15.1027 2.37361 15.2902C2.56115 15.4777 2.6665 15.7321 2.6665 15.9973V19.0013C2.6665 19.1853 2.81584 19.3346 2.99984 19.3346H18.9998C19.0882 19.3346 19.173 19.2995 19.2355 19.237C19.2981 19.1745 19.3332 19.0897 19.3332 19.0013V15.9973C19.3332 15.7321 19.4385 15.4777 19.6261 15.2902C19.8136 15.1027 20.068 14.9973 20.3332 14.9973C20.5984 14.9973 20.8527 15.1027 21.0403 15.2902C21.2278 15.4777 21.3332 15.7321 21.3332 15.9973V19.0013C21.3332 19.6201 21.0873 20.2136 20.6498 20.6512C20.2122 21.0888 19.6187 21.3346 18.9998 21.3346H2.99984C2.381 21.3346 1.78751 21.0888 1.34992 20.6512C0.912337 20.2136 0.666504 19.6201 0.666504 19.0013V15.9973C0.666504 15.7321 0.771861 15.4777 0.959397 15.2902C1.14693 15.1027 1.40129 14.9973 1.6665 14.9973ZM11.2692 0.667969C11.5344 0.667969 11.7887 0.773325 11.9763 0.960862C12.1638 1.1484 12.2692 1.40275 12.2692 1.66797V12.4493C12.2692 12.7145 12.1638 12.9689 11.9763 13.1564C11.7887 13.3439 11.5344 13.4493 11.2692 13.4493C11.004 13.4493 10.7496 13.3439 10.5621 13.1564C10.3745 12.9689 10.2692 12.7145 10.2692 12.4493V1.66797C10.2692 1.40275 10.3745 1.1484 10.5621 0.960862C10.7496 0.773325 11.004 0.667969 11.2692 0.667969Z" fill="#1B65FF"/>
<path fill-rule="evenodd" clip-rule="evenodd" d="M6.09607 9.1703C6.28126 8.98071 6.53414 8.8724 6.79915 8.86915C7.06415 8.8659 7.31961 8.96798 7.5094 9.15296L11.2694 12.8263L15.0294 9.15296C15.1229 9.05925 15.2341 8.98505 15.3566 8.93465C15.479 8.88426 15.6102 8.85867 15.7426 8.85939C15.875 8.8601 16.0059 8.8871 16.1278 8.93882C16.2497 8.99053 16.3601 9.06594 16.4526 9.16065C16.5451 9.25537 16.6179 9.36751 16.6667 9.49057C16.7155 9.61364 16.7394 9.74517 16.737 9.87755C16.7346 10.0099 16.706 10.1405 16.6527 10.2617C16.5994 10.3829 16.5226 10.4923 16.4267 10.5836L11.9681 14.9396C11.7813 15.1221 11.5305 15.2242 11.2694 15.2242C11.0083 15.2242 10.7575 15.1221 10.5707 14.9396L6.11207 10.5836C5.92266 10.3983 5.81459 10.1453 5.81159 9.88028C5.80859 9.61527 5.91091 9.35991 6.09607 9.1703Z" fill="#1B65FF"/>
</svg>
