<svg width="25" height="25" viewBox="0 0 25 25" fill="none" xmlns="http://www.w3.org/2000/svg">
<path d="M20.5567 21.9553L14.2628 15.6614C13.7632 16.061 13.1888 16.3774 12.5394 16.6105C11.89 16.8436 11.199 16.9602 10.4664 16.9602C8.65149 16.9602 7.11563 16.3314 5.85884 15.074C4.60205 13.8165 3.97332 12.2807 3.97266 10.4664C3.97199 8.65215 4.60072 7.1163 5.85884 5.85884C7.11696 4.60138 8.65282 3.97266 10.4664 3.97266C12.28 3.97266 13.8162 4.60138 15.075 5.85884C16.3338 7.1163 16.9622 8.65215 16.9602 10.4664C16.9602 11.199 16.8436 11.89 16.6105 12.5394C16.3774 13.1888 16.061 13.7632 15.6614 14.2628L21.9553 20.5567L20.5567 21.9553ZM10.4664 14.9621C11.7152 14.9621 12.7768 14.5252 13.6513 13.6513C14.5258 12.7775 14.9627 11.7159 14.9621 10.4664C14.9614 9.21694 14.5245 8.15563 13.6513 7.28247C12.7782 6.40931 11.7165 5.97207 10.4664 5.97073C9.21628 5.9694 8.15496 6.40665 7.28247 7.28247C6.40998 8.15829 5.97273 9.21961 5.97073 10.4664C5.96874 11.7132 6.40598 12.7749 7.28247 13.6513C8.15896 14.5278 9.22027 14.9647 10.4664 14.9621Z" fill="#686D74"/>
</svg>
