<svg width="20" height="20" viewBox="0 0 20 20" fill="none" xmlns="http://www.w3.org/2000/svg">
<g clip-path="url(#clip0_1790_13869)">
<path fill-rule="evenodd" clip-rule="evenodd" d="M10.2982 5.65938C10.6065 5.47355 11.1432 5.20521 11.6582 5.52688C12.1848 5.85688 12.1573 6.46688 12.1115 6.81855C12.0607 7.21855 11.919 7.74688 11.7523 8.36855L11.7065 8.54021C11.6732 8.66105 11.6482 8.75688 11.6282 8.84021C11.6197 8.87533 11.6119 8.91061 11.6048 8.94605C11.6973 8.97938 11.8332 9.01855 12.0515 9.07688L12.0932 9.08855C12.504 9.19855 12.8748 9.29771 13.1482 9.41355C13.4198 9.52855 13.7898 9.73855 13.9098 10.181L13.9115 10.1877L13.9132 10.1944L13.9148 10.201L13.9165 10.2077L13.9182 10.2144L13.919 10.221L13.9207 10.2285L13.9223 10.2352C14.014 10.6902 13.7698 11.0427 13.5682 11.2635C13.3598 11.4919 13.0523 11.7402 12.7132 12.0102L10.9965 13.3769C10.4857 13.7844 10.0523 14.1285 9.70316 14.3394C9.39483 14.5252 8.85816 14.7935 8.34316 14.4719C7.8165 14.1419 7.844 13.5319 7.88983 13.1802C7.94066 12.7802 8.08233 12.2519 8.249 11.6302L8.29483 11.4585C8.33031 11.3272 8.36364 11.1952 8.39483 11.0627C8.24966 11.0061 8.10102 10.9588 7.94983 10.921C7.51733 10.806 7.13066 10.7002 6.844 10.5744C6.57066 10.4544 6.2065 10.2394 6.08816 9.80188L6.0865 9.79521L6.08483 9.78855L6.08316 9.78188L6.0815 9.77521L6.07983 9.76855L6.07816 9.76188L6.0765 9.75521L6.07566 9.74855C5.98233 9.28688 6.23483 8.93688 6.43733 8.72105C6.6365 8.50771 6.9315 8.27271 7.25316 8.01688L9.00483 6.62188C9.51566 6.21438 9.949 5.86938 10.2982 5.65938ZM9.7465 7.62938C10.244 7.23271 10.5915 6.95771 10.8523 6.78688C10.8007 7.08521 10.6907 7.49938 10.5323 8.09188L10.4907 8.24771C10.4317 8.44871 10.3858 8.6533 10.3532 8.86021C10.3257 9.07688 10.3315 9.34105 10.4848 9.60188L10.4882 9.60688L10.4915 9.61271C10.6465 9.86271 10.8723 9.99521 11.0707 10.0794C11.2582 10.1577 11.4915 10.221 11.729 10.2844C12.1073 10.386 12.3648 10.456 12.5465 10.521C12.4148 10.646 12.219 10.8052 11.934 11.0327L10.2548 12.3694C9.75733 12.766 9.40983 13.041 9.149 13.2119C9.20066 12.9135 9.31066 12.4985 9.469 11.9069L9.51066 11.751C9.56733 11.5402 9.62483 11.3252 9.64816 11.1385C9.67566 10.9219 9.66983 10.6577 9.5165 10.3977L9.514 10.3994C9.3665 10.1719 9.15483 10.0369 8.96066 9.94605C8.73845 9.84954 8.50846 9.77204 8.27316 9.71438C7.99696 9.6449 7.72368 9.56428 7.454 9.47271C7.58733 9.34938 7.78233 9.19271 8.06733 8.96605L9.7465 7.62938Z" fill="#686D74"/>
<path d="M10.0003 0.991016C5.02521 0.991016 0.991992 5.02424 0.991992 9.99935C0.991992 14.9745 5.02521 19.0077 10.0003 19.0077C14.9754 19.0077 19.0087 14.9745 19.0087 9.99935C19.0087 5.02424 14.9754 0.991016 10.0003 0.991016ZM2.34199 9.99935C2.34199 7.96823 3.14885 6.02031 4.58507 4.58409C6.02128 3.14787 7.96921 2.34102 10.0003 2.34102C12.0314 2.34102 13.9794 3.14787 15.4156 4.58409C16.8518 6.02031 17.6587 7.96823 17.6587 9.99935C17.6587 12.0305 16.8518 13.9784 15.4156 15.4146C13.9794 16.8508 12.0314 17.6577 10.0003 17.6577C7.96921 17.6577 6.02128 16.8508 4.58507 15.4146C3.14885 13.9784 2.34199 12.0305 2.34199 9.99935Z" fill="#686D74" stroke="#686D74" stroke-width="0.1"/>
</g>
<defs>
<clipPath id="clip0_1790_13869">
<rect width="20" height="20" fill="white"/>
</clipPath>
</defs>
</svg>
