<svg width="18" height="18" viewBox="0 0 18 18" fill="none" xmlns="http://www.w3.org/2000/svg">
<path fill-rule="evenodd" clip-rule="evenodd" d="M4.5 0H16.5V3H4.5V0ZM2.25 4.5H17.25C17.664 4.5 18 4.836 18 5.25V17.25C18 17.664 17.664 18 17.25 18H3C1.34325 18 0 16.6567 0 15V3.75C0 2.50725 1.00725 1.5 2.25 1.5H3V3H2.25C1.83675 3 1.5 3.33675 1.5 3.75C1.5 4.16325 1.83675 4.5 2.25 4.5ZM12 11.25C12 12.0787 12.6713 12.75 13.5 12.75C14.3287 12.75 15 12.0787 15 11.25C15 10.4213 14.3287 9.75 13.5 9.75C12.6713 9.75 12 10.4213 12 11.25Z" fill="#1B65FF"/>
</svg>
