<svg width="20" height="20" viewBox="0 0 20 20" fill="none" xmlns="http://www.w3.org/2000/svg">
<g clip-path="url(#clip0_1790_13863)">
<path d="M17.3226 13.9893V17.2227C17.3226 17.3965 17.2536 17.5633 17.1306 17.6862C17.0077 17.8091 16.8409 17.8782 16.6671 17.8782H3.96185H3.96151V17.7782L17.3226 13.9893ZM17.3226 13.9893H17.7782C17.952 13.9893 18.1188 13.9203 18.2417 13.7973C18.3647 13.6744 18.4337 13.5076 18.4337 13.3338V8.88932C18.4337 8.71546 18.3647 8.54872 18.2417 8.42578C18.1188 8.30283 17.952 8.23377 17.7782 8.23377H17.3226V5.00043C17.3226 4.82657 17.2536 4.65983 17.1306 4.53689C17.0077 4.41395 16.8409 4.34488 16.6671 4.34488H3.33373V4.34487L3.3321 4.34489C3.22423 4.34665 3.11924 4.31007 3.03581 4.24166C2.95461 4.17508 2.89898 4.08255 2.87818 3.9798V3.79884C2.89898 3.6961 2.95461 3.60357 3.03581 3.53698C3.11924 3.46858 3.22423 3.43199 3.3321 3.43375L3.3321 3.43377H3.33373H16.4337C16.6076 3.43377 16.7743 3.3647 16.8973 3.24176C17.0202 3.11882 17.0893 2.95208 17.0893 2.77821C17.0893 2.60435 17.0202 2.4376 16.8973 2.31466C16.7743 2.19172 16.6076 2.12266 16.4337 2.12266H3.33373C2.86518 2.12266 2.41582 2.30879 2.08451 2.6401C1.7539 2.97071 1.56786 3.41885 1.56707 3.88632C1.56306 3.95492 1.56306 4.02369 1.56707 4.09228L17.3226 13.9893ZM3.96151 16.5671L3.96054 16.5671C3.67791 16.5698 3.40562 16.4609 3.20292 16.2639C3.00044 16.0671 2.88376 15.7984 2.87818 15.5161V5.61752C3.02834 5.64956 3.18213 5.66253 3.33589 5.65599H16.0115V8.23377H12.2226C11.4594 8.23377 10.7274 8.53696 10.1877 9.07665C9.64804 9.61634 9.34484 10.3483 9.34484 11.1115C9.34484 11.8748 9.64804 12.6068 10.1877 13.1464C10.7274 13.6861 11.4594 13.9893 12.2226 13.9893H16.0115V16.5671L3.96151 16.5671ZM17.1226 12.6782H12.2226C11.8071 12.6782 11.4086 12.5132 11.1148 12.2193C10.821 11.9255 10.656 11.5271 10.656 11.1115C10.656 10.696 10.821 10.2976 11.1148 10.0037C11.4086 9.70994 11.8071 9.54488 12.2226 9.54488H17.1226V12.6782Z" fill="#1B65FF" stroke="#1B65FF" stroke-width="0.2"/>
<path d="M12.7835 11.944C13.2438 11.944 13.6169 11.5709 13.6169 11.1107C13.6169 10.6504 13.2438 10.2773 12.7835 10.2773C12.3233 10.2773 11.9502 10.6504 11.9502 11.1107C11.9502 11.5709 12.3233 11.944 12.7835 11.944Z" fill="#D3D9E2"/>
</g>
<defs>
<clipPath id="clip0_1790_13863">
<rect width="20" height="20" fill="white"/>
</clipPath>
</defs>
</svg>
