<svg width="20" height="20" viewBox="0 0 20 20" fill="none" xmlns="http://www.w3.org/2000/svg">
<g clip-path="url(#clip0_1790_5886)">
<path d="M17.3221 13.9893V17.2227C17.3221 17.3965 17.2531 17.5633 17.1301 17.6862C17.0072 17.8091 16.8404 17.8782 16.6666 17.8782H3.96136H3.96102V17.7782L17.3221 13.9893ZM17.3221 13.9893H17.7777C17.9516 13.9893 18.1183 13.9203 18.2412 13.7973C18.3642 13.6744 18.4332 13.5076 18.4332 13.3338V8.88932C18.4332 8.71546 18.3642 8.54872 18.2412 8.42578C18.1183 8.30283 17.9516 8.23377 17.7777 8.23377H17.3221V5.00043C17.3221 4.82657 17.2531 4.65983 17.1301 4.53689C17.0072 4.41395 16.8404 4.34488 16.6666 4.34488H3.33324V4.34487L3.33161 4.34489C3.22374 4.34665 3.11875 4.31007 3.03532 4.24166C2.95413 4.17508 2.89849 4.08255 2.87769 3.9798V3.79884C2.89849 3.6961 2.95413 3.60357 3.03532 3.53698C3.11875 3.46858 3.22374 3.43199 3.33161 3.43375L3.33161 3.43377H3.33324H16.4332C16.6071 3.43377 16.7739 3.3647 16.8968 3.24176C17.0197 3.11882 17.0888 2.95208 17.0888 2.77821C17.0888 2.60435 17.0197 2.4376 16.8968 2.31466C16.7739 2.19172 16.6071 2.12266 16.4332 2.12266H3.33324C2.86469 2.12266 2.41534 2.30879 2.08402 2.6401C1.75342 2.97071 1.56737 3.41885 1.56658 3.88632C1.56257 3.95492 1.56257 4.02369 1.56658 4.09228L17.3221 13.9893ZM3.96102 16.5671L3.96006 16.5671C3.67742 16.5698 3.40513 16.4609 3.20243 16.2639C2.99995 16.0671 2.88327 15.7984 2.87769 15.5161V5.61752C3.02786 5.64956 3.18165 5.66253 3.3354 5.65599H16.011V8.23377H12.2221C11.4589 8.23377 10.7269 8.53696 10.1872 9.07665C9.64755 9.61634 9.34435 10.3483 9.34435 11.1115C9.34435 11.8748 9.64755 12.6068 10.1872 13.1464C10.7269 13.6861 11.4589 13.9893 12.2221 13.9893H16.011V16.5671L3.96102 16.5671ZM17.1221 12.6782H12.2221C11.8066 12.6782 11.4081 12.5132 11.1143 12.2193C10.8205 11.9255 10.6555 11.5271 10.6555 11.1115C10.6555 10.696 10.8205 10.2976 11.1143 10.0037C11.4081 9.70994 11.8066 9.54488 12.2221 9.54488H17.1221V12.6782Z" fill="#686D74" stroke="#686D74" stroke-width="0.2"/>
<path d="M12.7835 11.944C13.2438 11.944 13.6169 11.5709 13.6169 11.1107C13.6169 10.6504 13.2438 10.2773 12.7835 10.2773C12.3233 10.2773 11.9502 10.6504 11.9502 11.1107C11.9502 11.5709 12.3233 11.944 12.7835 11.944Z" fill="#D3D9E2"/>
</g>
<defs>
<clipPath id="clip0_1790_5886">
<rect width="20" height="20" fill="white"/>
</clipPath>
</defs>
</svg>
