<svg width="18" height="18" viewBox="0 0 18 18" fill="none" xmlns="http://www.w3.org/2000/svg">
<path d="M7.79185 1.39561L2.82935 4.15061C2.44195 4.36637 2.11943 4.68199 1.89535 5.06465C1.67126 5.4473 1.55381 5.88301 1.55519 6.32644V11.6714C1.55395 12.1147 1.67148 12.5503 1.89556 12.9328C2.11963 13.3153 2.44207 13.6307 2.82935 13.8464L7.79352 16.6023C8.16275 16.8079 8.57839 16.9159 9.00102 16.9159C9.42366 16.9159 9.83929 16.8079 10.2085 16.6023L15.1727 13.8473C15.5601 13.6315 15.8826 13.3159 16.1067 12.9332C16.3308 12.5506 16.4482 12.1149 16.4469 11.6714V6.32644C16.4481 5.88315 16.3306 5.44761 16.1065 5.06512C15.8824 4.68263 15.56 4.36713 15.1727 4.15144L10.2085 1.39561C9.83929 1.18997 9.42366 1.08203 9.00102 1.08203C8.57839 1.08203 8.16275 1.18997 7.79352 1.39561H7.79185Z" stroke="#686D74" stroke-width="1.5"/>
<path d="M15.9419 4.82812L9.00026 8.99813M9.00026 8.99813L2.05859 4.82812M9.00026 8.99813V16.9065" stroke="#686D74" stroke-width="1.5"/>
</svg>
