<svg width="20" height="20" viewBox="0 0 20 20" fill="none" xmlns="http://www.w3.org/2000/svg">
<path fill-rule="evenodd" clip-rule="evenodd" d="M10.2982 5.66133C10.6065 5.4755 11.1432 5.20717 11.6582 5.52883C12.1848 5.85883 12.1573 6.46883 12.1115 6.8205C12.0607 7.2205 11.919 7.74883 11.7523 8.3705L11.7065 8.54217C11.6732 8.663 11.6482 8.75883 11.6282 8.84217C11.6197 8.87728 11.6119 8.91256 11.6048 8.948C11.6973 8.98133 11.8332 9.0205 12.0515 9.07883L12.0932 9.0905C12.504 9.2005 12.8748 9.29967 13.1482 9.4155C13.4198 9.5305 13.7898 9.7405 13.9098 10.183L13.9115 10.1897L13.9132 10.1963L13.9148 10.203L13.9165 10.2097L13.9182 10.2163L13.919 10.223L13.9207 10.2305L13.9223 10.2372C14.014 10.6922 13.7698 11.0447 13.5682 11.2655C13.3598 11.4938 13.0523 11.7422 12.7132 12.0122L10.9965 13.3788C10.4857 13.7863 10.0523 14.1305 9.70316 14.3413C9.39483 14.5272 8.85816 14.7955 8.34316 14.4738C7.8165 14.1438 7.844 13.5338 7.88983 13.1822C7.94066 12.7822 8.08233 12.2538 8.249 11.6322L8.29483 11.4605C8.33031 11.3291 8.36364 11.1971 8.39483 11.0647C8.24966 11.008 8.10102 10.9607 7.94983 10.923C7.51733 10.808 7.13066 10.7022 6.844 10.5763C6.57066 10.4563 6.2065 10.2413 6.08816 9.80383L6.0865 9.79717L6.08483 9.7905L6.08316 9.78383L6.0815 9.77717L6.07983 9.7705L6.07816 9.76383L6.0765 9.75717L6.07566 9.7505C5.98233 9.28883 6.23483 8.93883 6.43733 8.723C6.6365 8.50967 6.9315 8.27467 7.25316 8.01883L9.00483 6.62383C9.51566 6.21633 9.949 5.87133 10.2982 5.66133ZM9.7465 7.63133C10.244 7.23467 10.5915 6.95967 10.8523 6.78883C10.8007 7.08717 10.6907 7.50133 10.5323 8.09383L10.4907 8.24967C10.4317 8.45066 10.3858 8.65525 10.3532 8.86217C10.3257 9.07883 10.3315 9.343 10.4848 9.60383L10.4882 9.60883L10.4915 9.61467C10.6465 9.86467 10.8723 9.99717 11.0707 10.0813C11.2582 10.1597 11.4915 10.223 11.729 10.2863C12.1073 10.388 12.3648 10.458 12.5465 10.523C12.4148 10.648 12.219 10.8072 11.934 11.0347L10.2548 12.3713C9.75733 12.768 9.40983 13.043 9.149 13.2138C9.20066 12.9155 9.31066 12.5005 9.469 11.9088L9.51066 11.753C9.56733 11.5422 9.62483 11.3272 9.64816 11.1405C9.67566 10.9238 9.66983 10.6597 9.5165 10.3997L9.514 10.4013C9.3665 10.1738 9.15483 10.0388 8.96066 9.948C8.73845 9.8515 8.50846 9.774 8.27316 9.71633C7.99696 9.64685 7.72368 9.56623 7.454 9.47467C7.58733 9.35133 7.78233 9.19467 8.06733 8.968L9.7465 7.63133Z" fill="#686D74"/>
<path d="M10.0003 0.992969C5.02521 0.992969 0.991992 5.02619 0.991992 10.0013C0.991992 14.9764 5.02521 19.0096 10.0003 19.0096C14.9754 19.0096 19.0087 14.9764 19.0087 10.0013C19.0087 5.02619 14.9754 0.992969 10.0003 0.992969ZM2.34199 10.0013C2.34199 7.97019 3.14885 6.02226 4.58507 4.58604C6.02128 3.14983 7.96921 2.34297 10.0003 2.34297C12.0314 2.34297 13.9794 3.14983 15.4156 4.58604C16.8518 6.02226 17.6587 7.97019 17.6587 10.0013C17.6587 12.0324 16.8518 13.9803 15.4156 15.4166C13.9794 16.8528 12.0314 17.6596 10.0003 17.6596C7.96921 17.6596 6.02128 16.8528 4.58507 15.4166C3.14885 13.9803 2.34199 12.0324 2.34199 10.0013Z" fill="#686D74" stroke="#686D74" stroke-width="0.1"/>
</svg>
