<svg width="20" height="20" viewBox="0 0 20 20" fill="none" xmlns="http://www.w3.org/2000/svg">
<path d="M19.25 10.0018H6.895H19.25ZM2.534 10.0018H0.75H2.534ZM19.25 16.6088H13.502H19.25ZM9.141 16.6088H0.75H9.141ZM19.25 3.39484H16.145H19.25ZM11.784 3.39484H0.75H11.784ZM13.964 5.57484C14.2503 5.57484 14.5338 5.51846 14.7983 5.4089C15.0627 5.29935 15.3031 5.13877 15.5055 4.93634C15.7079 4.7339 15.8685 4.49358 15.9781 4.22909C16.0876 3.9646 16.144 3.68113 16.144 3.39484C16.144 3.10856 16.0876 2.82508 15.9781 2.56059C15.8685 2.2961 15.7079 2.05578 15.5055 1.85335C15.3031 1.65092 15.0627 1.49034 14.7983 1.38079C14.5338 1.27123 14.2503 1.21484 13.964 1.21484C13.3858 1.21484 12.8313 1.44452 12.4225 1.85335C12.0137 2.26218 11.784 2.81667 11.784 3.39484C11.784 3.97302 12.0137 4.52751 12.4225 4.93634C12.8313 5.34517 13.3858 5.57484 13.964 5.57484ZM4.714 12.1818C5.29217 12.1818 5.84666 11.9522 6.25549 11.5433C6.66432 11.1345 6.894 10.58 6.894 10.0018C6.894 9.42367 6.66432 8.86918 6.25549 8.46035C5.84666 8.05152 5.29217 7.82184 4.714 7.82184C4.13583 7.82184 3.58134 8.05152 3.17251 8.46035C2.76368 8.86918 2.534 9.42367 2.534 10.0018C2.534 10.58 2.76368 11.1345 3.17251 11.5433C3.58134 11.9522 4.13583 12.1818 4.714 12.1818ZM11.321 18.7898C11.8993 18.7898 12.4539 18.5601 12.8628 18.1512C13.2718 17.7423 13.502 17.1871 13.502 16.6088C13.502 16.0305 13.2718 15.4764 12.8628 15.0675C12.4539 14.6586 11.8993 14.4288 11.321 14.4288C10.7428 14.4288 10.1883 14.6585 9.77951 15.0674C9.37068 15.4762 9.141 16.0307 9.141 16.6088C9.141 17.187 9.37068 17.7415 9.77951 18.1503C10.1883 18.5592 10.7428 18.7898 11.321 18.7898Z" fill="#686D74"/>
<path d="M19.25 10.0018H6.895M2.534 10.0018H0.75M2.534 10.0018C2.534 9.42367 2.76368 8.86918 3.17251 8.46035C3.58134 8.05152 4.13583 7.82184 4.714 7.82184C5.29217 7.82184 5.84666 8.05152 6.25549 8.46035C6.66432 8.86918 6.894 9.42367 6.894 10.0018C6.894 10.58 6.66432 11.1345 6.25549 11.5433C5.84666 11.9522 5.29217 12.1818 4.714 12.1818C4.13583 12.1818 3.58134 11.9522 3.17251 11.5433C2.76368 11.1345 2.534 10.58 2.534 10.0018ZM19.25 16.6088H13.502M13.502 16.6088C13.502 17.1871 13.2718 17.7423 12.8628 18.1512C12.4539 18.5601 11.8993 18.7898 11.321 18.7898C10.7428 18.7898 10.1883 18.5592 9.77951 18.1503C9.37068 17.7415 9.141 17.187 9.141 16.6088M13.502 16.6088C13.502 16.0305 13.2718 15.4764 12.8628 15.0675C12.4539 14.6586 11.8993 14.4288 11.321 14.4288C10.7428 14.4288 10.1883 14.6585 9.77951 15.0674C9.37068 15.4762 9.141 16.0307 9.141 16.6088M9.141 16.6088H0.75M19.25 3.39484H16.145M11.784 3.39484H0.75M11.784 3.39484C11.784 2.81667 12.0137 2.26218 12.4225 1.85335C12.8313 1.44452 13.3858 1.21484 13.964 1.21484C14.2503 1.21484 14.5338 1.27123 14.7983 1.38079C15.0627 1.49034 15.3031 1.65092 15.5055 1.85335C15.7079 2.05578 15.8685 2.2961 15.9781 2.56059C16.0876 2.82508 16.144 3.10856 16.144 3.39484C16.144 3.68113 16.0876 3.9646 15.9781 4.22909C15.8685 4.49358 15.7079 4.7339 15.5055 4.93634C15.3031 5.13877 15.0627 5.29935 14.7983 5.4089C14.5338 5.51846 14.2503 5.57484 13.964 5.57484C13.3858 5.57484 12.8313 5.34517 12.4225 4.93634C12.0137 4.52751 11.784 3.97302 11.784 3.39484Z" stroke="#686D74" stroke-width="1.5" stroke-miterlimit="10" stroke-linecap="round"/>
</svg>
