<svg width="19" height="19" viewBox="0 0 19 19" fill="none" xmlns="http://www.w3.org/2000/svg">
<path fill-rule="evenodd" clip-rule="evenodd" d="M5.29255 0.976562H17.281V3.97368H5.29255V0.976562ZM3.04471 5.47224H18.0303C18.4439 5.47224 18.7796 5.80791 18.7796 6.22151V18.21C18.7796 18.6236 18.4439 18.9593 18.0303 18.9593H3.79399C2.13883 18.9593 0.796875 17.6173 0.796875 15.9621V4.72296C0.796875 3.4814 1.80316 2.47512 3.04471 2.47512H3.79399V3.97368H3.04471C2.63186 3.97368 2.29543 4.3101 2.29543 4.72296C2.29543 5.13581 2.63186 5.47224 3.04471 5.47224ZM12.7853 12.2157C12.7853 13.0437 13.4559 13.7143 14.2839 13.7143C15.1118 13.7143 15.7825 13.0437 15.7825 12.2157C15.7825 11.3878 15.1118 10.7172 14.2839 10.7172C13.4559 10.7172 12.7853 11.3878 12.7853 12.2157Z" fill="#868D96"/>
</svg>
