<svg width="19" height="22" viewBox="0 0 19 22" fill="none" xmlns="http://www.w3.org/2000/svg">
<path d="M16.6575 5.97175H14.6594C14.6594 3.17445 12.4615 0.976562 9.6642 0.976562C6.86689 0.976562 4.66901 3.17445 4.66901 5.97175H2.67093C1.57199 5.97175 0.672852 6.87089 0.672852 7.96983V19.9583C0.672852 21.0572 1.57199 21.9564 2.67093 21.9564H16.6575C17.7564 21.9564 18.6555 21.0572 18.6555 19.9583V7.96983C18.6555 6.87089 17.7564 5.97175 16.6575 5.97175ZM9.6642 2.97464C11.3626 2.97464 12.6613 4.27339 12.6613 5.97175H6.66708C6.66708 4.27339 7.96583 2.97464 9.6642 2.97464ZM16.6575 19.9583H2.67093V7.96983H16.6575V19.9583ZM9.6642 11.966C7.96583 11.966 6.66708 10.6672 6.66708 8.96887H4.66901C4.66901 11.7662 6.86689 13.9641 9.6642 13.9641C12.4615 13.9641 14.6594 11.7662 14.6594 8.96887H12.6613C12.6613 10.6672 11.3626 11.966 9.6642 11.966Z" fill="#1B65FF"/>
</svg>
