<svg width="16" height="17" viewBox="0 0 16 17" fill="none" xmlns="http://www.w3.org/2000/svg">
<path d="M13.8333 3.16797C14.2538 3.16784 14.6588 3.32664 14.9671 3.61255C15.2754 3.89846 15.4643 4.29034 15.4958 4.70964L15.5 4.83464V14.8346C15.5001 15.2551 15.3413 15.6601 15.0554 15.9684C14.7695 16.2767 14.3776 16.4656 13.9583 16.4971L13.8333 16.5013H2.16667C1.74619 16.5014 1.34119 16.3426 1.03288 16.0567C0.724559 15.7708 0.535703 15.3789 0.504167 14.9596L0.5 14.8346V4.83464C0.499867 4.41416 0.658672 4.00916 0.944581 3.70085C1.23049 3.39253 1.62237 3.20367 2.04167 3.17214L2.16667 3.16797H13.8333ZM13.8333 4.83464H2.16667V14.8346H2.94167L9.865 7.9113C10.0603 7.71615 10.3251 7.60652 10.6012 7.60652C10.8774 7.60652 11.1422 7.71615 11.3375 7.9113L13.8333 10.4063V4.83464ZM10.6008 9.5313L5.2975 14.8346H13.8333V12.7638L10.6008 9.5313ZM5.08333 6.5013C5.41485 6.5013 5.7328 6.633 5.96722 6.86742C6.20164 7.10184 6.33333 7.41978 6.33333 7.7513C6.33333 8.08282 6.20164 8.40077 5.96722 8.63519C5.7328 8.86961 5.41485 9.0013 5.08333 9.0013C4.75181 9.0013 4.43387 8.86961 4.19945 8.63519C3.96503 8.40077 3.83333 8.08282 3.83333 7.7513C3.83333 7.41978 3.96503 7.10184 4.19945 6.86742C4.43387 6.633 4.75181 6.5013 5.08333 6.5013ZM13 0.667969C13.221 0.667969 13.433 0.755766 13.5893 0.912046C13.7455 1.06833 13.8333 1.28029 13.8333 1.5013C13.8333 1.72232 13.7455 1.93428 13.5893 2.09056C13.433 2.24684 13.221 2.33464 13 2.33464H3C2.77899 2.33464 2.56702 2.24684 2.41074 2.09056C2.25446 1.93428 2.16667 1.72232 2.16667 1.5013C2.16667 1.28029 2.25446 1.06833 2.41074 0.912046C2.56702 0.755766 2.77899 0.667969 3 0.667969H13Z" fill="#1B65FF"/>
</svg>
