<svg width="22" height="22" viewBox="0 0 22 22" fill="none" xmlns="http://www.w3.org/2000/svg">
<path fill-rule="evenodd" clip-rule="evenodd" d="M1.6665 14.9961C1.93172 14.9961 2.18607 15.1015 2.37361 15.289C2.56115 15.4765 2.6665 15.7309 2.6665 15.9961V19.0001C2.6665 19.1841 2.81584 19.3334 2.99984 19.3334H18.9998C19.0882 19.3334 19.173 19.2983 19.2355 19.2358C19.2981 19.1733 19.3332 19.0885 19.3332 19.0001V15.9961C19.3332 15.7309 19.4385 15.4765 19.6261 15.289C19.8136 15.1015 20.068 14.9961 20.3332 14.9961C20.5984 14.9961 20.8527 15.1015 21.0403 15.289C21.2278 15.4765 21.3332 15.7309 21.3332 15.9961V19.0001C21.3332 19.6189 21.0873 20.2124 20.6498 20.65C20.2122 21.0876 19.6187 21.3334 18.9998 21.3334H2.99984C2.381 21.3334 1.78751 21.0876 1.34992 20.65C0.912337 20.2124 0.666504 19.6189 0.666504 19.0001V15.9961C0.666504 15.7309 0.771861 15.4765 0.959397 15.289C1.14693 15.1015 1.40129 14.9961 1.6665 14.9961Z" fill="#1B65FF"/>
<path fill-rule="evenodd" clip-rule="evenodd" d="M11.269 2.44141C11.5343 2.44141 11.7886 2.54676 11.9762 2.7343C12.1637 2.92184 12.269 3.17619 12.269 3.44141V14.2227C12.269 14.488 12.1637 14.7423 11.9762 14.9298C11.7886 15.1174 11.5343 15.2227 11.269 15.2227C11.0038 15.2227 10.7495 15.1174 10.5619 14.9298C10.3744 14.7423 10.269 14.488 10.269 14.2227V3.44274C10.269 3.17752 10.3744 2.92317 10.5619 2.73563C10.7495 2.5481 11.0038 2.44141 11.269 2.44141Z" fill="#1B65FF"/>
<path fill-rule="evenodd" clip-rule="evenodd" d="M10.5704 0.952522C10.7572 0.770095 11.008 0.667969 11.2691 0.667969C11.5302 0.667969 11.7809 0.770095 11.9677 0.952522L16.4264 5.30719C16.6122 5.49334 16.7172 5.7452 16.7186 6.0082C16.72 6.2712 16.6178 6.52417 16.434 6.71232C16.2502 6.90047 15.9997 7.00865 15.7368 7.01343C15.4738 7.01821 15.2196 6.9192 15.0291 6.73785L11.2691 3.06585L7.50907 6.73785C7.41555 6.83157 7.30434 6.90577 7.18191 6.95617C7.05948 7.00656 6.92826 7.03215 6.79587 7.03143C6.66347 7.03071 6.53254 7.00372 6.41066 6.952C6.28878 6.90029 6.17839 6.82488 6.08588 6.73017C5.99337 6.63545 5.92059 6.52331 5.87176 6.40025C5.82293 6.27718 5.79903 6.14565 5.80143 6.01327C5.80384 5.8809 5.83251 5.75032 5.88578 5.62911C5.93904 5.5079 6.01585 5.39848 6.11174 5.30719L10.5704 0.952522Z" fill="#1B65FF"/>
</svg>
