<svg width="21" height="20" viewBox="0 0 21 20" fill="none" xmlns="http://www.w3.org/2000/svg">
<path d="M18.8999 10.6614C18.7396 10.4789 18.6512 10.2443 18.6512 10.0014C18.6512 9.75845 18.7396 9.52385 18.8999 9.34136L20.1799 7.90136C20.3209 7.74403 20.4085 7.54606 20.4301 7.33587C20.4516 7.12567 20.4061 6.91405 20.2999 6.73136L18.2999 3.27136C18.1948 3.08888 18.0348 2.94424 17.8426 2.85805C17.6505 2.77186 17.4361 2.74852 17.2299 2.79136L15.3499 3.17136C15.1107 3.22079 14.8616 3.18095 14.6498 3.05936C14.4379 2.93777 14.2779 2.74284 14.1999 2.51136L13.5899 0.68136C13.5228 0.482739 13.395 0.310225 13.2245 0.188202C13.0541 0.0661789 12.8495 0.000818796 12.6399 0.00135996H8.6399C8.42183 -0.0100221 8.20603 0.0502863 8.02546 0.173074C7.84489 0.295862 7.70948 0.474379 7.6399 0.68136L7.0799 2.51136C7.0019 2.74284 6.84187 2.93777 6.63001 3.05936C6.41815 3.18095 6.16911 3.22079 5.9299 3.17136L3.9999 2.79136C3.80445 2.76374 3.6052 2.79458 3.42724 2.88C3.24929 2.96542 3.1006 3.10159 2.9999 3.27136L0.999896 6.73136C0.891056 6.91201 0.842118 7.12245 0.860079 7.33258C0.878039 7.54272 0.961979 7.7418 1.0999 7.90136L2.3699 9.34136C2.53022 9.52385 2.61863 9.75845 2.61863 10.0014C2.61863 10.2443 2.53022 10.4789 2.3699 10.6614L1.0999 12.1014C0.961979 12.2609 0.878039 12.46 0.860079 12.6701C0.842118 12.8803 0.891056 13.0907 0.999896 13.2714L2.9999 16.7314C3.10499 16.9138 3.26502 17.0585 3.45715 17.1447C3.64928 17.2309 3.86372 17.2542 4.0699 17.2114L5.9499 16.8314C6.18911 16.7819 6.43815 16.8218 6.65001 16.9434C6.86187 17.0649 7.0219 17.2599 7.0999 17.4914L7.7099 19.3214C7.77948 19.5283 7.91489 19.7069 8.09546 19.8296C8.27603 19.9524 8.49183 20.0127 8.7099 20.0014H12.7099C12.9195 20.0019 13.1241 19.9365 13.2945 19.8145C13.465 19.6925 13.5928 19.52 13.6599 19.3214L14.2699 17.4914C14.3479 17.2599 14.5079 17.0649 14.7198 16.9434C14.9316 16.8218 15.1807 16.7819 15.4199 16.8314L17.2999 17.2114C17.5061 17.2542 17.7205 17.2309 17.9126 17.1447C18.1048 17.0585 18.2648 16.9138 18.3699 16.7314L20.3699 13.2714C20.4761 13.0887 20.5216 12.877 20.5001 12.6669C20.4785 12.4567 20.3909 12.2587 20.2499 12.1014L18.8999 10.6614ZM17.4099 12.0014L18.2099 12.9014L16.9299 15.1214L15.7499 14.8814C15.0297 14.7341 14.2805 14.8565 13.6445 15.2252C13.0085 15.5938 12.53 16.1832 12.2999 16.8814L11.9199 18.0014H9.3599L8.9999 16.8614C8.76975 16.1632 8.29128 15.5738 7.6553 15.2052C7.01932 14.8365 6.27012 14.7141 5.5499 14.8614L4.3699 15.1014L3.0699 12.8914L3.8699 11.9914C4.36185 11.4413 4.63383 10.7293 4.63383 9.99136C4.63383 9.25343 4.36185 8.54138 3.8699 7.99136L3.0699 7.09136L4.3499 4.89136L5.5299 5.13136C6.25012 5.27858 6.99932 5.15624 7.6353 4.78756C8.27128 4.41888 8.74975 3.82952 8.9799 3.13136L9.3599 2.00136H11.9199L12.2999 3.14136C12.53 3.83952 13.0085 4.42888 13.6445 4.79756C14.2805 5.16624 15.0297 5.28858 15.7499 5.14136L16.9299 4.90136L18.2099 7.12136L17.4099 8.02136C16.9235 8.57012 16.6549 9.27804 16.6549 10.0114C16.6549 10.7447 16.9235 11.4526 17.4099 12.0014ZM10.6399 6.00136C9.84877 6.00136 9.07541 6.23596 8.41761 6.67548C7.75982 7.11501 7.24713 7.73972 6.94438 8.47063C6.64163 9.20153 6.56241 10.0058 6.71675 10.7817C6.8711 11.5576 7.25206 12.2704 7.81147 12.8298C8.37088 13.3892 9.08361 13.7702 9.85954 13.9245C10.6355 14.0788 11.4397 13.9996 12.1706 13.6969C12.9015 13.3941 13.5262 12.8814 13.9658 12.2236C14.4053 11.5658 14.6399 10.7925 14.6399 10.0014C14.6399 8.94049 14.2185 7.92308 13.4683 7.17293C12.7182 6.42279 11.7008 6.00136 10.6399 6.00136ZM10.6399 12.0014C10.2443 12.0014 9.85765 11.8841 9.52876 11.6643C9.19986 11.4445 8.94351 11.1322 8.79214 10.7667C8.64076 10.4013 8.60116 9.99914 8.67833 9.61118C8.7555 9.22322 8.94598 8.86685 9.22568 8.58715C9.50539 8.30744 9.86175 8.11696 10.2497 8.03979C10.6377 7.96262 11.0398 8.00223 11.4053 8.1536C11.7707 8.30498 12.0831 8.56132 12.3028 8.89022C12.5226 9.21912 12.6399 9.6058 12.6399 10.0014C12.6399 10.5318 12.4292 11.0405 12.0541 11.4156C11.679 11.7906 11.1703 12.0014 10.6399 12.0014Z" fill="#686D74"/>
</svg>
