<svg width="18" height="16" viewBox="0 0 18 16" fill="none" xmlns="http://www.w3.org/2000/svg">
<path d="M16.3226 11.9893V15.2227C16.3226 15.3965 16.2536 15.5633 16.1306 15.6862C16.0077 15.8091 15.8409 15.8782 15.6671 15.8782H2.96185H2.96151V15.7782L16.3226 11.9893ZM16.3226 11.9893H16.7782C16.952 11.9893 17.1188 11.9203 17.2417 11.7973C17.3647 11.6744 17.4337 11.5076 17.4337 11.3338V6.88932C17.4337 6.71546 17.3647 6.54872 17.2417 6.42578C17.1188 6.30283 16.952 6.23377 16.7782 6.23377H16.3226V3.00043C16.3226 2.82657 16.2536 2.65983 16.1306 2.53689C16.0077 2.41395 15.8409 2.34488 15.6671 2.34488H2.33373V2.34487L2.3321 2.34489C2.22423 2.34665 2.11924 2.31007 2.03581 2.24166C1.95461 2.17508 1.89898 2.08255 1.87818 1.9798V1.79884C1.89898 1.6961 1.95461 1.60357 2.03581 1.53698C2.11924 1.46858 2.22423 1.43199 2.3321 1.43375L2.3321 1.43377H2.33373H15.4337C15.6076 1.43377 15.7743 1.3647 15.8973 1.24176C16.0202 1.11882 16.0893 0.952076 16.0893 0.778212C16.0893 0.604348 16.0202 0.437605 15.8973 0.314664C15.7743 0.191724 15.6076 0.122656 15.4337 0.122656H2.33373C1.86518 0.122656 1.41582 0.308787 1.08451 0.640101C0.753903 0.970707 0.567861 1.41885 0.567068 1.88632C0.563062 1.95492 0.563061 2.02369 0.567065 2.09228L16.3226 11.9893ZM2.96151 14.5671L2.96054 14.5671C2.67791 14.5698 2.40562 14.4609 2.20292 14.2639C2.00044 14.0671 1.88376 13.7984 1.87818 13.5161V3.61752C2.02834 3.64956 2.18213 3.66253 2.33589 3.65599H15.0115V6.23377H11.2226C10.4594 6.23377 9.72741 6.53696 9.18773 7.07665C8.64804 7.61634 8.34484 8.34831 8.34484 9.11155C8.34484 9.87478 8.64804 10.6068 9.18773 11.1464C9.72741 11.6861 10.4594 11.9893 11.2226 11.9893H15.0115V14.5671L2.96151 14.5671ZM16.1226 10.6782H11.2226C10.8071 10.6782 10.4086 10.5132 10.1148 10.2193C9.82101 9.92554 9.65595 9.52705 9.65595 9.11155C9.65595 8.69604 9.82101 8.29755 10.1148 8.00374C10.4086 7.70994 10.8071 7.54488 11.2226 7.54488H16.1226V10.6782Z" fill="#686D74" stroke="#686D74" stroke-width="0.2"/>
</svg>
