<svg width="30" height="30" viewBox="0 0 30 30" fill="none" xmlns="http://www.w3.org/2000/svg">
<g clip-path="url(#clip0_1854_2556)">
<path d="M15 30C23.2843 30 30 23.2843 30 15C30 6.71573 23.2843 0 15 0C6.71573 0 0 6.71573 0 15C0 23.2843 6.71573 30 15 30Z" fill="url(#paint0_linear_1854_2556)"/>
<path fill-rule="evenodd" clip-rule="evenodd" d="M21.0394 10.5866C20.8825 10.2877 20.6271 10.0524 20.3164 9.92059C20.0374 9.7785 19.7294 9.70254 19.4164 9.69859H10.6609C10.3304 9.67796 10.0012 9.75517 9.71436 9.92059C9.53293 9.98019 9.3652 10.0754 9.22097 10.2005C9.07675 10.3257 8.95891 10.4784 8.87436 10.6496C8.68569 10.9698 8.60374 11.3417 8.64036 11.7116C8.66721 12.0531 8.78877 12.3804 8.99136 12.6566L14.4199 22.1366C14.4876 22.2357 14.5781 22.3172 14.6838 22.3741C14.7895 22.431 14.9073 22.4617 15.0274 22.4636C15.1509 22.4739 15.2747 22.4485 15.3842 22.3906C15.4938 22.3326 15.5844 22.2445 15.6454 22.1366L21.0979 12.6566C21.2894 12.3581 21.3833 12.0074 21.3664 11.6531C21.3486 11.2758 21.2362 10.909 21.0394 10.5866ZM14.3389 19.1786L10.1584 11.8826C10.0504 11.6606 9.99486 11.5496 9.99486 11.5496C9.97919 11.4505 9.99883 11.3491 10.0504 11.2631C10.0922 11.1627 10.172 11.0829 10.2724 11.0411H14.3389V19.1786ZM19.9189 11.5901C19.9414 11.702 19.9414 11.8172 19.9189 11.9291L15.6454 19.2146V11.0891H19.3579C19.4891 11.0747 19.6219 11.0943 19.7434 11.1461L19.8019 11.2046C19.8604 11.2046 19.8604 11.3096 19.9189 11.3096C19.9458 11.4011 19.9458 11.4985 19.9189 11.5901Z" fill="white"/>
</g>
<defs>
<linearGradient id="paint0_linear_1854_2556" x1="15" y1="30" x2="15" y2="0" gradientUnits="userSpaceOnUse">
<stop stop-color="#0072AB"/>
<stop offset="1" stop-color="#2EB9FF"/>
</linearGradient>
<clipPath id="clip0_1854_2556">
<rect width="30" height="30" fill="white"/>
</clipPath>
</defs>
</svg>
