<svg width="48" height="48" viewBox="0 0 48 48" fill="none" xmlns="http://www.w3.org/2000/svg">
    <path d="M0 24C0 10.7452 10.7452 0 24 0C37.2548 0 48 10.7452 48 24C48 37.2548 37.2548 48 24 48C10.7452 48 0 37.2548 0 24Z" fill="#EBEEF1"/>
    <path d="M26.9166 25.3247C27.5076 24.8719 27.942 24.2452 28.1585 23.5328C28.3751 22.8204 28.3629 22.058 28.1239 21.3529C27.8848 20.6477 27.4308 20.0352 26.8256 19.6013C26.2205 19.1675 25.4946 18.9342 24.75 18.9342C24.0054 18.9342 23.2795 19.1675 22.6744 19.6013C22.0692 20.0352 21.6152 20.6477 21.3761 21.3529C21.1371 22.058 21.1249 22.8204 21.3415 23.5328C21.558 24.2452 21.9924 24.8719 22.5834 25.3247C21.4744 25.7389 20.5081 26.4637 19.8 27.4125C19.7105 27.5318 19.6721 27.6819 19.6932 27.8295C19.7143 27.9772 19.7932 28.1105 19.9125 28.2C20.0318 28.2895 20.1819 28.3279 20.3295 28.3068C20.4772 28.2857 20.6105 28.2068 20.7 28.0875C21.1716 27.4588 21.783 26.9484 22.486 26.597C23.1889 26.2455 23.9641 26.0625 24.75 26.0625C25.5359 26.0625 26.3111 26.2455 27.014 26.597C27.717 26.9484 28.3284 27.4588 28.8 28.0875C28.8895 28.2068 29.0228 28.2857 29.1705 28.3068C29.3181 28.3279 29.4682 28.2895 29.5875 28.2C29.7068 28.1105 29.7857 27.9772 29.8068 27.8295C29.8279 27.6819 29.7895 27.5318 29.7 27.4125C28.9919 26.4637 28.0256 25.7389 26.9166 25.3247ZM22.3125 22.5C22.3125 22.0179 22.4555 21.5466 22.7233 21.1458C22.9911 20.745 23.3718 20.4325 23.8172 20.248C24.2626 20.0636 24.7527 20.0153 25.2255 20.1093C25.6984 20.2034 26.1327 20.4355 26.4736 20.7764C26.8145 21.1173 27.0466 21.5516 27.1407 22.0245C27.2347 22.4973 27.1864 22.9874 27.002 23.4328C26.8175 23.8782 26.505 24.2589 26.1042 24.5267C25.7034 24.7945 25.2321 24.9375 24.75 24.9375C24.1035 24.9375 23.4835 24.6807 23.0264 24.2236C22.5693 23.7665 22.3125 23.1465 22.3125 22.5ZM31.5 14.4375H18C17.6519 14.4375 17.3181 14.5758 17.0719 14.8219C16.8258 15.0681 16.6875 15.4019 16.6875 15.75V18.1875H15C14.8508 18.1875 14.7077 18.2468 14.6023 18.3523C14.4968 18.4577 14.4375 18.6008 14.4375 18.75C14.4375 18.8992 14.4968 19.0423 14.6023 19.1477C14.7077 19.2532 14.8508 19.3125 15 19.3125H16.6875V23.4375H15C14.8508 23.4375 14.7077 23.4968 14.6023 23.6023C14.4968 23.7077 14.4375 23.8508 14.4375 24C14.4375 24.1492 14.4968 24.2923 14.6023 24.3977C14.7077 24.5032 14.8508 24.5625 15 24.5625H16.6875V28.6875H15C14.8508 28.6875 14.7077 28.7468 14.6023 28.8523C14.4968 28.9577 14.4375 29.1008 14.4375 29.25C14.4375 29.3992 14.4968 29.5423 14.6023 29.6477C14.7077 29.7532 14.8508 29.8125 15 29.8125H16.6875V32.25C16.6875 32.5981 16.8258 32.9319 17.0719 33.1781C17.3181 33.4242 17.6519 33.5625 18 33.5625H31.5C31.8481 33.5625 32.1819 33.4242 32.4281 33.1781C32.6742 32.9319 32.8125 32.5981 32.8125 32.25V15.75C32.8125 15.4019 32.6742 15.0681 32.4281 14.8219C32.1819 14.5758 31.8481 14.4375 31.5 14.4375ZM31.6875 32.25C31.6875 32.2997 31.6677 32.3474 31.6326 32.3826C31.5974 32.4177 31.5497 32.4375 31.5 32.4375H18C17.9503 32.4375 17.9026 32.4177 17.8674 32.3826C17.8323 32.3474 17.8125 32.2997 17.8125 32.25V15.75C17.8125 15.7003 17.8323 15.6526 17.8674 15.6174C17.9026 15.5823 17.9503 15.5625 18 15.5625H31.5C31.5497 15.5625 31.5974 15.5823 31.6326 15.6174C31.6677 15.6526 31.6875 15.7003 31.6875 15.75V32.25Z" fill="#24D998"/>
    </svg>
    