<svg width="48" height="48" viewBox="0 0 48 48" fill="none" xmlns="http://www.w3.org/2000/svg">
    <path d="M0 24C0 10.7452 10.7452 0 24 0C37.2548 0 48 10.7452 48 24C48 37.2548 37.2548 48 24 48C10.7452 48 0 37.2548 0 24Z" fill="#EBEEF1"/>
    <path d="M19 27H21C21 28.08 22.37 29 24 29C25.63 29 27 28.08 27 27C27 25.9 25.96 25.5 23.76 24.97C21.64 24.44 19 23.78 19 21C19 19.21 20.47 17.69 22.5 17.18V15H25.5V17.18C27.53 17.69 29 19.21 29 21H27C27 19.92 25.63 19 24 19C22.37 19 21 19.92 21 21C21 22.1 22.04 22.5 24.24 23.03C26.36 23.56 29 24.22 29 27C29 28.79 27.53 30.31 25.5 30.82V33H22.5V30.82C20.47 30.31 19 28.79 19 27Z" fill="#24D998"/>
    </svg>
    