<svg width="48" height="48" viewBox="0 0 48 48" fill="none" xmlns="http://www.w3.org/2000/svg">
    <path d="M0 24C0 10.7452 10.7452 0 24 0C37.2548 0 48 10.7452 48 24C48 37.2548 37.2548 48 24 48C10.7452 48 0 37.2548 0 24Z" fill="#EBEEF1"/>
    <path fill-rule="evenodd" clip-rule="evenodd" d="M20 21V18C20 16.9391 20.4214 15.9217 21.1716 15.1716C21.9217 14.4214 22.9391 14 24 14C25.0609 14 26.0783 14.4214 26.8284 15.1716C27.5786 15.9217 28 16.9391 28 18V21H31C31.265 21 31.5192 21.1052 31.7068 21.2925C31.8943 21.4799 31.9997 21.734 32 21.999V33C32.0004 33.1314 31.9748 33.2616 31.9247 33.3832C31.8746 33.5047 31.8009 33.6151 31.708 33.708C31.6151 33.8009 31.5047 33.8746 31.3832 33.9247C31.2617 33.9748 31.1314 34.0004 31 34H17C16.735 34 16.4808 33.8948 16.2933 33.7075C16.1057 33.5201 16.0003 33.266 16 33.001V22C15.9996 21.8686 16.0252 21.7384 16.0753 21.6168C16.1254 21.4953 16.1991 21.3849 16.292 21.292C16.385 21.1991 16.4953 21.1254 16.6169 21.0753C16.7384 21.0252 16.8686 20.9996 17 21H20ZM21.2 21H26.8V18C26.8 17.2574 26.505 16.5452 25.9799 16.0201C25.4548 15.495 24.7426 15.2 24 15.2C23.2574 15.2 22.5452 15.495 22.0201 16.0201C21.495 16.5452 21.2 17.2574 21.2 18V21ZM17.2 22.2V32.8H30.8V22.2H17.2ZM23.4 27.875C23.0842 27.7372 22.8254 27.4948 22.6673 27.1886C22.5091 26.8824 22.4612 26.5311 22.5316 26.1938C22.6021 25.8564 22.7865 25.5536 23.0539 25.3362C23.3213 25.1189 23.6554 25.0002 24 25.0002C24.3446 25.0002 24.6787 25.1189 24.9461 25.3362C25.2135 25.5536 25.398 25.8564 25.4684 26.1938C25.5388 26.5311 25.4909 26.8824 25.3327 27.1886C25.1746 27.4948 24.9158 27.7372 24.6 27.875V30H23.4V27.875Z" fill="#24D998"/>
    </svg>
    