<svg width="48" height="48" viewBox="0 0 48 48" fill="none" xmlns="http://www.w3.org/2000/svg">
    <path d="M0 24C0 10.7452 10.7452 0 24 0C37.2548 0 48 10.7452 48 24C48 37.2548 37.2548 48 24 48C10.7452 48 0 37.2548 0 24Z" fill="#EBEEF1"/>
    <path d="M25.5004 24.4235C24.9364 24.4235 24.462 24.2311 24.0774 23.8465C23.6927 23.4618 23.5004 22.9875 23.5004 22.4235C23.5004 21.8595 23.6927 21.3851 24.0774 21.0005C24.462 20.6158 24.9364 20.4235 25.5004 20.4235C26.0644 20.4235 26.5387 20.6158 26.9234 21.0005C27.3081 21.3851 27.5004 21.8595 27.5004 22.4235C27.5004 22.9875 27.3081 23.4618 26.9234 23.8465C26.5387 24.2311 26.0644 24.4235 25.5004 24.4235ZM17.6924 27.6165V17.2305H33.3084V27.6155L17.6924 27.6165ZM20.3084 26.6165H30.6924C30.6924 26.1685 30.8507 25.7871 31.1674 25.4725C31.4834 25.1578 31.8634 25.0005 32.3074 25.0005V19.8465C31.8607 19.8465 31.4801 19.6885 31.1654 19.3725C30.8501 19.0558 30.6924 18.6755 30.6924 18.2315H20.3084C20.3084 18.6788 20.15 19.0598 19.8334 19.3745C19.5174 19.6891 19.1374 19.8465 18.6934 19.8465V25.0005C19.14 25.0005 19.521 25.1588 19.8364 25.4755C20.151 25.7915 20.3084 26.1725 20.3084 26.6165ZM14.6924 30.6155V20.1935H15.6924V29.6175H30.3464V30.6175L14.6924 30.6155Z" fill="#24D998"/>
    </svg>
    