<svg width="48" height="48" viewBox="0 0 48 48" fill="none" xmlns="http://www.w3.org/2000/svg">
    <path d="M0 24C0 10.7452 10.7452 0 24 0C37.2548 0 48 10.7452 48 24C48 37.2548 37.2548 48 24 48C10.7452 48 0 37.2548 0 24Z" fill="#EBEEF1"/>
    <path d="M19.8822 20.679C19.8801 20.7274 19.888 20.7758 19.9053 20.8211C19.9226 20.8664 19.949 20.9076 19.9829 20.9423C20.0167 20.977 20.0573 21.0044 20.1022 21.0229C20.147 21.0413 20.1952 21.0504 20.2437 21.0495H21.4812C21.6882 21.0495 21.8532 20.88 21.8802 20.6745C22.0152 19.6905 22.6902 18.9735 23.8932 18.9735C24.9222 18.9735 25.8642 19.488 25.8642 20.7255C25.8642 21.678 25.3032 22.116 24.4167 22.782C23.4072 23.5155 22.6077 24.372 22.6647 25.7625L22.6692 26.088C22.6707 26.1864 22.7109 26.2803 22.7811 26.3493C22.8512 26.4183 22.9457 26.457 23.0442 26.457H24.2607C24.3601 26.457 24.4555 26.4175 24.5258 26.3472C24.5961 26.2768 24.6357 26.1815 24.6357 26.082V25.9245C24.6357 24.8475 25.0452 24.534 26.1507 23.6955C27.0642 23.001 28.0167 22.23 28.0167 20.6115C28.0167 18.345 26.1027 17.25 24.0072 17.25C22.1067 17.25 20.0247 18.135 19.8822 20.679ZM22.2177 29.3235C22.2177 30.123 22.8552 30.714 23.7327 30.714C24.6462 30.714 25.2747 30.123 25.2747 29.3235C25.2747 28.4955 24.6447 27.9135 23.7312 27.9135C22.8552 27.9135 22.2177 28.4955 22.2177 29.3235Z" fill="#24D998"/>
    </svg>
    