<svg width="48" height="48" viewBox="0 0 48 48" fill="none" xmlns="http://www.w3.org/2000/svg">
<path d="M0 24C0 10.7452 10.7452 0 24 0C37.2548 0 48 10.7452 48 24C48 37.2548 37.2548 48 24 48C10.7452 48 0 37.2548 0 24Z" fill="#EBEEF1"/>
<g clip-path="url(#clip0_1840_1275)">
<path d="M24.5296 22.185C24.512 23.5725 25.7661 24.3467 26.7108 24.8071C27.6814 25.2794 28.0074 25.5823 28.0035 26.0047C27.9963 26.6511 27.2293 26.9364 26.5116 26.9474C25.2595 26.9668 24.5314 26.6094 23.9526 26.339L23.5015 28.4497C24.0822 28.7173 25.1575 28.9507 26.2726 28.9609C28.8901 28.9609 30.6025 27.6689 30.6117 25.6656C30.622 23.1232 27.0951 22.9825 27.1192 21.8461C27.1275 21.5015 27.4563 21.1338 28.1768 21.0403C28.5334 20.9931 29.5179 20.957 30.634 21.4709L31.0721 19.4288C30.4719 19.2102 29.7004 19.0009 28.7399 19.0009C26.2763 19.0009 24.5435 20.3106 24.5296 22.185ZM35.2815 19.1768C34.8035 19.1768 34.4008 19.4556 34.221 19.8835L30.4821 28.8109H33.0976L33.6181 27.3725H36.8143L37.1162 28.8109H39.4215L37.4098 19.1768H35.2815ZM35.6474 21.7794L36.4022 25.3971H34.335L35.6474 21.7794ZM21.3584 19.177L19.2967 28.8108H21.7891L23.8498 19.1767L21.3584 19.177ZM17.6713 19.177L15.077 25.7342L14.0276 20.1586C13.9045 19.5362 13.4182 19.1768 12.8782 19.1768H8.63752L8.57812 19.4566C9.44873 19.6455 10.4379 19.9502 11.0372 20.2762C11.4039 20.4754 11.5085 20.6495 11.629 21.1227L13.6166 28.8109H16.2504L20.2885 19.1768L17.6713 19.177Z" fill="url(#paint0_linear_1840_1275)"/>
</g>
<defs>
<linearGradient id="paint0_linear_1840_1275" x1="1426.57" y1="48.9407" x2="1455.4" y2="-973.966" gradientUnits="userSpaceOnUse">
<stop stop-color="#222357"/>
<stop offset="1" stop-color="#254AA5"/>
</linearGradient>
<clipPath id="clip0_1840_1275">
<rect width="30.8434" height="10" fill="white" transform="translate(8.57812 19)"/>
</clipPath>
</defs>
</svg>
