<svg width="48" height="48" viewBox="0 0 48 48" fill="none" xmlns="http://www.w3.org/2000/svg">
    <path d="M0 24C0 10.7452 10.7452 0 24 0C37.2548 0 48 10.7452 48 24C48 37.2548 37.2548 48 24 48C10.7452 48 0 37.2548 0 24Z" fill="#EBEEF1"/>
    <g clip-path="url(#clip0_1770_6578)">
    <path d="M33.333 22.0013H32.6664V18.0013C32.6664 17.8245 32.5961 17.6549 32.4711 17.5299C32.3461 17.4049 32.1765 17.3346 31.9997 17.3346H15.9997C15.8418 17.3372 15.6882 17.2837 15.5661 17.1836C15.444 17.0835 15.3614 16.9433 15.333 16.788V16.548C15.3614 16.3927 15.444 16.2525 15.5661 16.1524C15.6882 16.0523 15.8418 15.9987 15.9997 16.0013H31.7197C31.8965 16.0013 32.0661 15.9311 32.1911 15.806C32.3161 15.681 32.3864 15.5114 32.3864 15.3346C32.3864 15.1578 32.3161 14.9883 32.1911 14.8632C32.0661 14.7382 31.8965 14.668 31.7197 14.668H15.9997C15.4693 14.668 14.9606 14.8787 14.5855 15.2538C14.2104 15.6288 13.9997 16.1375 13.9997 16.668C13.9949 16.7479 13.9949 16.828 13.9997 16.908V30.6213C14.0023 30.9803 14.0756 31.3352 14.2154 31.6658C14.3552 31.9964 14.5587 32.2963 14.8144 32.5482C15.0701 32.8002 15.3729 32.9993 15.7055 33.1342C16.0381 33.2692 16.3941 33.3373 16.753 33.3346H31.9997C32.1765 33.3346 32.3461 33.2644 32.4711 33.1394C32.5961 33.0144 32.6664 32.8448 32.6664 32.668V28.668H33.333C33.5098 28.668 33.6794 28.5977 33.8044 28.4727C33.9295 28.3477 33.9997 28.1781 33.9997 28.0013V22.668C33.9997 22.4912 33.9295 22.3216 33.8044 22.1966C33.6794 22.0715 33.5098 22.0013 33.333 22.0013ZM31.333 32.0013H16.753C16.3822 32.0049 16.025 31.8619 15.7591 31.6035C15.4932 31.345 15.34 30.9921 15.333 30.6213V18.588C15.5494 18.6508 15.7746 18.6778 15.9997 18.668H31.333V22.0013H26.6664C25.7823 22.0013 24.9345 22.3525 24.3093 22.9776C23.6842 23.6027 23.333 24.4506 23.333 25.3346C23.333 26.2187 23.6842 27.0665 24.3093 27.6917C24.9345 28.3168 25.7823 28.668 26.6664 28.668H31.333V32.0013ZM32.6664 27.3346H26.6664C26.1359 27.3346 25.6272 27.1239 25.2521 26.7488C24.8771 26.3738 24.6664 25.8651 24.6664 25.3346C24.6664 24.8042 24.8771 24.2955 25.2521 23.9204C25.6272 23.5453 26.1359 23.3346 26.6664 23.3346H32.6664V27.3346Z" fill="#24D998"/>
    <path d="M27.3398 26.332C27.8921 26.332 28.3398 25.8843 28.3398 25.332C28.3398 24.7797 27.8921 24.332 27.3398 24.332C26.7876 24.332 26.3398 24.7797 26.3398 25.332C26.3398 25.8843 26.7876 26.332 27.3398 26.332Z" fill="#D3D9E2"/>
    </g>
    <defs>
    <clipPath id="clip0_1770_6578">
    <rect width="24" height="24" fill="white" transform="translate(12 12)"/>
    </clipPath>
    </defs>
    </svg>
    