<svg xmlns="http://www.w3.org/2000/svg" xmlns:xlink="http://www.w3.org/1999/xlink" version="1.1" id="Layer_1" x="0px" y="0px" viewBox="0 0 1000 1000" style="enable-background:new 0 0 1000 1000;" xml:space="preserve">
<style type="text/css">
	.st0{fill:#5EC3EF;}
	.st1{fill:#00579C;}
	.st2{fill:url(#SVGID_1_);}
	.st3{fill:url(#SVGID_2_);}
</style>
    <g>
	<g>
		<polygon class="st0" points="503.5,928 761.9,815.1 777.9,775.6 777.9,775.6 805.5,707.3 624.7,628.3   "/>
        <polygon class="st0" points="562.3,99.1 500,72 437.7,99.1 22.2,280.7 95.2,461.6 499.9,284.8 499.9,284.8 499.9,284.8 500,284.8     500.1,284.8 500.1,284.8 500.1,284.8 904.8,461.6 977.8,280.7   "/>
        <polygon class="st0" points="121.4,526.4 194.5,707.3 222.1,775.6 222.1,775.6 238.1,815.1 496.5,928 375.3,628.3 500,573.9     805.5,707.3 878.6,526.4 500,361.1   "/>
	</g>
        <g>
		<g>
			<polygon class="st1" points="503.5,928 624.7,628.3 805.5,707.3 761.9,815.1    "/>

            <linearGradient id="SVGID_1_" gradientUnits="userSpaceOnUse" x1="-550.9165" y1="665.0512" x2="-581.1688" y2="730.3324" gradientTransform="matrix(1 0 0 1 1269.3053 0)">
				<stop offset="0" style="stop-color:#103153"/>
                <stop offset="1" style="stop-color:#00579C"/>
			</linearGradient>
            <polygon class="st2" points="805.5,707.3 624.7,628.3 597.7,695.5 777.9,775.6    "/>
		</g>
            <g>
			<polygon class="st0" points="805.5,707.3 500,573.9 500,361.1 878.6,526.4    "/>
                <polygon class="st0" points="562.3,99.1 977.8,280.7 904.8,461.6 500.1,284.8 500.1,284.8 500.1,284.8 500,284.8 500,72    "/>
		</g>
	</g>
        <g>
		<g>
			<polygon class="st1" points="496.5,928 375.3,628.3 194.5,707.3 238.1,815.1    "/>

            <linearGradient id="SVGID_2_" gradientUnits="userSpaceOnUse" x1="-763.4262" y1="665.0512" x2="-793.6785" y2="730.3324" gradientTransform="matrix(-1 0 0 1 -481.8151 0)">
				<stop offset="0" style="stop-color:#103153"/>
                <stop offset="1" style="stop-color:#00579C"/>
			</linearGradient>
            <polygon class="st3" points="194.5,707.3 375.3,628.3 402.3,695.5 222.1,775.6    "/>
		</g>
            <g>
			<polygon class="st0" points="194.5,707.3 500,573.9 500,361.1 121.4,526.4    "/>
                <polygon class="st0" points="437.7,99.1 22.2,280.7 95.2,461.6 499.9,284.8 499.9,284.8 499.9,284.8 500,284.8 500,72    "/>
		</g>
	</g>
</g>
</svg>