<svg width="1408" height="340" viewBox="0 0 1408 340" fill="none" xmlns="http://www.w3.org/2000/svg">
<path d="M110.188 26.0253C25.7147 -16.1158 -48.4761 36.691 -78.7246 86.8189V339.666H-61.83H1408V51.5862C1293.92 104.739 1227.33 100.81 1192.98 51.5862C1163.8 9.77235 1153.04 95.1089 1039.39 95.1089C991.124 95.1089 940.51 80.9376 924.2 37.1761C901.162 -24.6357 839.586 2.17305 830.512 37.1762C821.437 72.1794 791.485 80.6408 668.331 80.6408C545.176 80.6408 541.444 81.2999 506.443 123.433C471.441 165.567 375.352 167.782 375.352 80.6408C375.352 0.464312 323.674 -7.1349 306.779 13.5902C288.762 35.6922 262.706 64.7122 222.306 64.7122C196.163 64.7122 186.102 63.8967 110.188 26.0253Z" fill="url(#paint0_linear_0_1)" fill-opacity="0.15"/>
<path d="M-78.7246 86.5291C-48.4761 36.5689 25.7147 -16.0612 110.188 25.9389C186.102 63.6836 196.163 64.4963 222.306 64.4963C262.706 64.4963 288.762 35.5734 306.779 13.5454C323.674 -7.11041 375.352 0.463384 375.352 80.3717C375.352 167.221 471.441 165.013 506.443 123.021C541.444 81.0286 545.176 80.3717 668.331 80.3717C791.485 80.3717 821.437 71.9386 830.512 37.0525C839.586 2.1664 901.162 -24.5526 924.2 37.0524C940.51 80.6675 991.124 94.7914 1039.39 94.7914C1153.04 94.7914 1163.8 9.74029 1192.98 51.4142C1227.33 100.474 1293.92 104.389 1408 51.4142" stroke="#F5B300" stroke-width="1.38558"/>
<defs>
<linearGradient id="paint0_linear_0_1" x1="664.637" y1="0.199219" x2="664.637" y2="339.666" gradientUnits="userSpaceOnUse">
<stop stop-color="#F5B300"/>
<stop offset="1" stop-color="#EBEEF1"/>
</linearGradient>
</defs>
</svg>
