<svg width="40" height="40" viewBox="0 0 40 40" fill="none" xmlns="http://www.w3.org/2000/svg">
<rect width="40" height="40" rx="20" fill="#F5B300"/>
<path d="M12.9728 9.19588C13.7073 9.39619 14.4418 9.52973 15.1763 9.73005C15.9107 9.93036 16.6452 10.0639 17.3797 10.2642C17.58 10.331 17.6468 10.2642 17.7136 10.0639C17.9806 8.92879 18.2477 7.86046 18.5148 6.72535C18.5816 6.52504 18.6483 6.45827 18.8487 6.52504C19.5164 6.72535 20.1173 6.85889 20.785 6.99244C20.9853 7.05921 20.9853 7.12598 20.9186 7.25952C20.6515 8.32786 20.3844 9.46296 20.1173 10.5313C20.1173 10.5981 20.1173 10.6648 20.0505 10.7984C20.5847 10.9319 21.1856 11.0655 21.7198 11.199C21.7866 11.199 21.8534 11.0655 21.9201 10.9987C22.1204 10.1307 22.3207 9.32942 22.5878 8.4614C22.6546 8.19431 22.7214 7.92723 22.7881 7.66015C22.7881 7.5266 22.8549 7.45983 22.9885 7.5266C23.6562 7.72692 24.3239 7.86046 25.0584 8.06077C25.1251 8.06077 25.1251 8.12754 25.1919 8.12754C24.9916 8.99557 24.7913 9.79682 24.591 10.5981C24.5242 10.9319 24.4574 11.2658 24.3239 11.5996C24.2571 11.7999 24.3239 11.8667 24.5242 11.9335C25.2587 12.2673 25.9932 12.6012 26.7276 12.9351C27.3953 13.3357 27.9963 13.8698 28.4637 14.5376C29.0646 15.5391 29.1314 16.6075 28.8643 17.6758C28.664 18.4103 28.3969 19.078 27.8627 19.6122C27.4621 20.0128 26.9279 20.2799 26.3938 20.4802C26.327 20.4802 26.2602 20.5469 26.1267 20.5469C26.3938 20.7473 26.6609 20.8808 26.9279 21.0811C27.7292 21.6821 28.2634 22.4165 28.5304 23.3513C28.664 24.0858 28.5972 24.8871 28.3969 25.6215C28.1298 26.5563 27.796 27.3576 27.195 28.0921C26.4605 28.9601 25.5258 29.4275 24.4574 29.561C23.0552 29.7613 21.7198 29.6278 20.3844 29.4275C20.1841 29.3607 20.0505 29.4275 19.9838 29.6278C19.7167 30.6961 19.4496 31.8312 19.1825 32.8996C19.1157 33.1667 19.1157 33.2334 18.7819 33.0999C18.1809 32.9664 17.5132 32.766 16.9123 32.6325C16.712 32.5657 16.712 32.499 16.7788 32.3654C17.0458 31.2303 17.3129 30.0952 17.6468 29.0269C17.6468 28.8933 17.7135 28.8266 17.58 28.7598C17.0458 28.6262 16.5117 28.4927 15.9107 28.3592C15.7772 28.9601 15.5769 29.561 15.4433 30.162C15.3098 30.7629 15.1095 31.3638 14.9759 31.9648C14.9092 32.0983 14.9092 32.1651 14.7089 32.0983C14.0411 31.898 13.3734 31.7645 12.7057 31.6309C12.5054 31.5642 12.5054 31.4974 12.5722 31.3638C12.8393 30.2287 13.1064 29.0936 13.4402 28.0253C13.4402 27.9585 13.507 27.8918 13.507 27.7582C11.9712 27.3576 10.4355 26.957 8.83301 26.5563C8.96655 26.2893 9.03332 26.0889 9.16686 25.8219C9.43395 25.2209 9.70103 24.62 9.90134 24.0858C9.96811 23.8855 10.0349 23.8855 10.2352 23.8855C10.7026 24.019 11.2368 24.1526 11.7042 24.2194C12.2383 24.3529 12.639 24.0858 12.7057 23.6184C13.5737 20.2131 14.4418 16.8078 15.243 13.3357C15.3766 12.8015 15.0427 12.2006 14.4418 12.0003C13.8408 11.7999 13.2399 11.6664 12.7057 11.5329C12.5722 11.5329 12.5054 11.4661 12.5722 11.3326C12.7725 10.5981 12.9728 9.79682 13.1731 9.06234C12.906 9.26265 12.906 9.26265 12.9728 9.19588ZM16.3781 25.6883C16.4449 25.6883 16.5117 25.7551 16.5117 25.7551C17.58 26.0222 18.7151 26.356 19.8502 26.4228C20.6515 26.4896 21.386 26.4896 22.1204 26.2225C23.3891 25.8219 23.9233 24.1526 23.1888 23.0842C22.8549 22.5501 22.3207 22.2162 21.7866 21.8824C20.5847 21.2147 19.1825 20.9476 17.8471 20.6805C17.6468 20.6137 17.6468 20.6805 17.58 20.8808C17.4465 21.5485 17.2462 22.1495 17.1126 22.8172C16.8455 23.752 16.6452 24.6867 16.3781 25.6883ZM21.9869 18.8777C22.1204 18.8777 22.4543 18.8109 22.7214 18.7441C23.99 18.477 24.6577 17.0081 23.99 15.873C23.6562 15.272 23.0552 14.8714 22.4543 14.6043C21.5195 14.2037 20.5847 14.0034 19.5831 13.7363C19.3828 13.6695 19.3161 13.7363 19.2493 13.9366C18.9154 15.3388 18.5816 16.6742 18.1809 18.0764C18.1142 18.21 18.1809 18.2767 18.3145 18.3435C18.5816 18.4103 18.7819 18.477 19.049 18.5438C20.0505 18.6774 20.9186 18.8777 21.9869 18.8777Z" fill="white"/>
</svg>
