<svg width="16" height="16" viewBox="0 0 16 16" fill="none" xmlns="http://www.w3.org/2000/svg">
<g clip-path="url(#clip0_1693_2133)">
<path d="M3.86667 3.86623L3.86623 3.86667C3.63214 4.10104 3.50066 4.41875 3.50066 4.75C3.50066 5.08125 3.63214 5.39896 3.86623 5.63333L3.86645 5.63355L6.23289 8L3.86645 10.3664L3.86021 10.3727L3.85419 10.3791C3.63339 10.6161 3.51319 10.9295 3.5189 11.2533C3.52462 11.5772 3.6558 11.8862 3.88482 12.1152C4.11385 12.3442 4.42282 12.4754 4.74666 12.4811C5.07049 12.4868 5.3839 12.3666 5.62086 12.1458L5.62732 12.1398L5.63355 12.1336L8 9.76711L10.361 12.1281C10.4741 12.2476 10.6097 12.3435 10.76 12.4105C10.9133 12.4788 11.0788 12.5156 11.2467 12.5185C11.4145 12.5215 11.5812 12.4906 11.7369 12.4277C11.8925 12.3649 12.0339 12.2713 12.1526 12.1526C12.2713 12.0339 12.3649 11.8925 12.4277 11.7369C12.4906 11.5812 12.5215 11.4145 12.5185 11.2467C12.5156 11.0788 12.4788 10.9133 12.4105 10.76C12.3435 10.6097 12.2476 10.4741 12.1281 10.361L9.76711 8L12.1281 5.639C12.2476 5.52591 12.3435 5.39034 12.4105 5.24003C12.4788 5.0867 12.5156 4.92118 12.5185 4.75334C12.5215 4.5855 12.4906 4.41879 12.4277 4.26314C12.3649 4.10749 12.2713 3.9661 12.1526 3.84741C12.0339 3.72871 11.8925 3.63514 11.7369 3.57227C11.5812 3.5094 11.4145 3.47852 11.2467 3.48149C11.0788 3.48445 10.9133 3.52118 10.76 3.5895C10.6097 3.65647 10.4741 3.75244 10.361 3.87188L8 6.23289L5.63355 3.86645L5.63333 3.86623C5.39896 3.63214 5.08125 3.50066 4.75 3.50066C4.41875 3.50066 4.10104 3.63214 3.86667 3.86623ZM13.3033 13.3033C11.8968 14.7098 9.98912 15.5 8 15.5C6.01088 15.5 4.10322 14.7098 2.6967 13.3033C1.29018 11.8968 0.5 9.98912 0.5 8C0.5 6.01088 1.29018 4.10322 2.6967 2.6967C4.10322 1.29018 6.01088 0.5 8 0.5C9.98912 0.5 11.8968 1.29018 13.3033 2.6967C14.7098 4.10322 15.5 6.01088 15.5 8C15.5 9.98912 14.7098 11.8968 13.3033 13.3033Z" fill="#EB3F34" stroke="#EB3F34"/>
</g>
<defs>
<clipPath id="clip0_1693_2133">
<rect width="16" height="16" fill="white"/>
</clipPath>
</defs>
</svg>
