<svg width="48" height="48" viewBox="0 0 48 48" fill="none" xmlns="http://www.w3.org/2000/svg">
<path d="M0 24C0 10.7452 10.7452 0 24 0C37.2548 0 48 10.7452 48 24C48 37.2548 37.2548 48 24 48C10.7452 48 0 37.2548 0 24Z" fill="#EBEEF1"/>
<path fill-rule="evenodd" clip-rule="evenodd" d="M17 26.997C17.1989 26.997 17.3897 27.076 17.5303 27.2167C17.671 27.3573 17.75 27.5481 17.75 27.747V30C17.75 30.138 17.862 30.25 18 30.25H30C30.0663 30.25 30.1299 30.2237 30.1768 30.1768C30.2237 30.1299 30.25 30.0663 30.25 30V27.747C30.25 27.5481 30.329 27.3573 30.4697 27.2167C30.6103 27.076 30.8011 26.997 31 26.997C31.1989 26.997 31.3897 27.076 31.5303 27.2167C31.671 27.3573 31.75 27.5481 31.75 27.747V30C31.75 30.4641 31.5656 30.9092 31.2374 31.2374C30.9092 31.5656 30.4641 31.75 30 31.75H18C17.5359 31.75 17.0908 31.5656 16.7626 31.2374C16.4344 30.9092 16.25 30.4641 16.25 30V27.747C16.25 27.5481 16.329 27.3573 16.4697 27.2167C16.6103 27.076 16.8011 26.997 17 26.997ZM24.202 16.25C24.4009 16.25 24.5917 16.329 24.7323 16.4697C24.873 16.6103 24.952 16.8011 24.952 17V25.086C24.952 25.2849 24.873 25.4757 24.7323 25.6163C24.5917 25.757 24.4009 25.836 24.202 25.836C24.0031 25.836 23.8123 25.757 23.6717 25.6163C23.531 25.4757 23.452 25.2849 23.452 25.086V17C23.452 16.8011 23.531 16.6103 23.6717 16.4697C23.8123 16.329 24.0031 16.25 24.202 16.25Z" fill="#686D74"/>
<path fill-rule="evenodd" clip-rule="evenodd" d="M20.3218 22.6277C20.4607 22.4855 20.6504 22.4043 20.8491 22.4019C21.0479 22.3994 21.2395 22.476 21.3818 22.6147L24.2018 25.3697L27.0218 22.6147C27.092 22.5444 27.1754 22.4888 27.2672 22.451C27.359 22.4132 27.4574 22.394 27.5567 22.3945C27.656 22.3951 27.7542 22.4153 27.8456 22.4541C27.937 22.4929 28.0198 22.5495 28.0892 22.6205C28.1586 22.6915 28.2132 22.7756 28.2498 22.8679C28.2864 22.9602 28.3043 23.0589 28.3025 23.1582C28.3007 23.2574 28.2792 23.3554 28.2393 23.4463C28.1993 23.5372 28.1417 23.6193 28.0698 23.6877L24.7258 26.9547C24.5857 27.0915 24.3976 27.1681 24.2018 27.1681C24.006 27.1681 23.8179 27.0915 23.6778 26.9547L20.3338 23.6877C20.1918 23.5487 20.1107 23.359 20.1084 23.1602C20.1062 22.9615 20.1829 22.7699 20.3218 22.6277Z" fill="#686D74"/>
</svg>
