<svg width="16" height="16" viewBox="0 0 16 16" fill="none" xmlns="http://www.w3.org/2000/svg">
<g clip-path="url(#clip0_1693_10927)">
<path d="M7.22342 11.8081L7.6153 12.1346L7.93392 11.7363L12.5398 5.97846L12.8521 5.58803L12.4617 5.2757L11.6297 4.6101L11.2393 4.2978L10.9269 4.68812L7.31813 9.19768L4.92806 7.20627L4.54396 6.88623L4.22389 7.27031L3.54122 8.08951L3.22109 8.47366L3.60529 8.79375L7.22342 11.8081ZM0.5 8C0.5 6.01088 1.29018 4.10322 2.6967 2.6967C4.10322 1.29018 6.01088 0.5 8 0.5C9.98912 0.5 11.8968 1.29018 13.3033 2.6967C14.7098 4.10322 15.5 6.01088 15.5 8C15.5 9.98912 14.7098 11.8968 13.3033 13.3033C11.8968 14.7098 9.98912 15.5 8 15.5C6.01088 15.5 4.10322 14.7098 2.6967 13.3033C1.29018 11.8968 0.5 9.98912 0.5 8Z" fill="#24D998" stroke="#24D998"/>
</g>
<defs>
<clipPath id="clip0_1693_10927">
<rect width="16" height="16" fill="white"/>
</clipPath>
</defs>
</svg>
