<svg width="24" height="24" viewBox="0 0 24 24" fill="none" xmlns="http://www.w3.org/2000/svg">
    <rect width="24" height="24" rx="12" fill="#F5B300"/>
    <path d="M7.78381 5.51596C8.2245 5.63615 8.66518 5.71628 9.10587 5.83647C9.54656 5.95665 9.98725 6.03678 10.4279 6.15697C10.5481 6.19703 10.5882 6.15697 10.6283 6.03678C10.7885 5.35571 10.9488 4.71471 11.109 4.03365C11.1491 3.91346 11.1891 3.8734 11.3093 3.91346C11.7099 4.03365 12.0705 4.11377 12.4711 4.1939C12.5913 4.23396 12.5913 4.27402 12.5513 4.35415C12.391 4.99515 12.2308 5.67622 12.0705 6.31722C12.0705 6.35728 12.0705 6.39734 12.0304 6.47747C12.3509 6.55759 12.7115 6.63772 13.032 6.71784C13.0721 6.71784 13.1121 6.63772 13.1522 6.59765C13.2724 6.07684 13.3926 5.59609 13.5528 5.07528C13.5929 4.91503 13.6329 4.75478 13.673 4.59452C13.673 4.5144 13.7131 4.47434 13.7932 4.5144C14.1938 4.63459 14.5944 4.71471 15.0351 4.8349C15.0752 4.8349 15.0752 4.87496 15.1153 4.87496C14.9951 5.39578 14.8749 5.87653 14.7547 6.35728C14.7146 6.55759 14.6746 6.75791 14.5944 6.95822C14.5544 7.07841 14.5944 7.11847 14.7146 7.15853C15.1553 7.35884 15.596 7.55916 16.0367 7.75947C16.4373 7.99985 16.7979 8.32035 17.0783 8.72097C17.4389 9.32191 17.479 9.96291 17.3187 10.6039C17.1985 11.0446 17.0383 11.4452 16.7178 11.7657C16.4774 12.0061 16.1569 12.1664 15.8364 12.2865C15.7963 12.2865 15.7563 12.3266 15.6761 12.3266C15.8364 12.4468 15.9966 12.5269 16.1569 12.6471C16.6376 13.0077 16.9581 13.4484 17.1184 14.0092C17.1985 14.4499 17.1585 14.9307 17.0383 15.3714C16.878 15.9322 16.6777 16.413 16.3171 16.8537C15.8765 17.3745 15.3156 17.6549 14.6746 17.7351C13.8333 17.8552 13.032 17.7751 12.2308 17.6549C12.1106 17.6149 12.0304 17.6549 11.9904 17.7751C11.8301 18.4161 11.6699 19.0972 11.5096 19.7382C11.4696 19.8984 11.4696 19.9385 11.2693 19.8584C10.9087 19.7782 10.5081 19.6581 10.1475 19.5779C10.0273 19.5379 10.0273 19.4978 10.0674 19.4177C10.2276 18.7366 10.3879 18.0556 10.5882 17.4146C10.5882 17.3344 10.6283 17.2944 10.5481 17.2543C10.2276 17.1742 9.90712 17.0941 9.54656 17.0139C9.46644 17.3745 9.34625 17.7351 9.26612 18.0956C9.186 18.4562 9.06581 18.8167 8.98569 19.1773C8.94562 19.2574 8.94562 19.2975 8.82544 19.2574C8.42481 19.1372 8.02418 19.0571 7.62356 18.977C7.50337 18.9369 7.50337 18.8969 7.54343 18.8167C7.70368 18.1357 7.86393 17.4546 8.06425 16.8136C8.06425 16.7736 8.10431 16.7335 8.10431 16.6534C7.18287 16.413 6.26143 16.1726 5.29993 15.9322C5.38005 15.772 5.42011 15.6518 5.50024 15.4916C5.66049 15.131 5.82074 14.7704 5.94093 14.4499C5.98099 14.3297 6.02105 14.3297 6.14124 14.3297C6.42168 14.4099 6.74218 14.49 7.02262 14.53C7.34312 14.6102 7.58349 14.4499 7.62356 14.1695C8.14437 12.1263 8.66518 10.0831 9.14594 7.99985C9.22606 7.67934 9.02575 7.31878 8.66518 7.19859C8.30462 7.07841 7.94406 6.99828 7.62356 6.91816C7.54343 6.91816 7.50337 6.87809 7.54343 6.79797C7.66362 6.35728 7.78381 5.87653 7.904 5.43584C7.74374 5.55603 7.74375 5.55603 7.78381 5.51596ZM9.827 15.4114C9.86706 15.4114 9.90712 15.4515 9.90712 15.4515C10.5481 15.6117 11.2292 15.8121 11.9103 15.8521C12.391 15.8922 12.8317 15.8922 13.2724 15.7319C14.0336 15.4916 14.3541 14.49 13.9134 13.849C13.7131 13.5285 13.3926 13.3282 13.0721 13.1279C12.3509 12.7272 11.5096 12.567 10.7084 12.4067C10.5882 12.3667 10.5882 12.4067 10.5481 12.5269C10.468 12.9275 10.3478 13.2881 10.2677 13.6887C10.1074 14.2496 9.98725 14.8105 9.827 15.4114ZM13.1923 11.325C13.2724 11.325 13.4727 11.285 13.6329 11.2449C14.3941 11.0847 14.7948 10.2033 14.3941 9.52222C14.1938 9.16166 13.8333 8.92129 13.4727 8.76104C12.9118 8.52066 12.3509 8.40047 11.75 8.24022C11.6298 8.20016 11.5898 8.24022 11.5497 8.36041C11.3494 9.20172 11.1491 10.003 10.9087 10.8443C10.8686 10.9244 10.9087 10.9645 10.9888 11.0045C11.1491 11.0446 11.2693 11.0847 11.4295 11.1247C12.0304 11.2049 12.5513 11.325 13.1923 11.325Z" fill="white"/>
    </svg>
    