<svg width="48" height="48" viewBox="0 0 48 48" fill="none" xmlns="http://www.w3.org/2000/svg">
    <path d="M0 24C0 10.7452 10.7452 0 24 0C37.2548 0 48 10.7452 48 24C48 37.2548 37.2548 48 24 48C10.7452 48 0 37.2548 0 24Z" fill="#EBEEF1"/>
    <path d="M33.25 24.0018H20.895H33.25ZM16.534 24.0018H14.75H16.534ZM33.25 30.6088H27.502H33.25ZM23.141 30.6088H14.75H23.141ZM33.25 17.3948H30.145H33.25ZM25.784 17.3948H14.75H25.784ZM27.964 19.5748C28.2503 19.5748 28.5338 19.5185 28.7983 19.4089C29.0627 19.2993 29.3031 19.1388 29.5055 18.9363C29.7079 18.7339 29.8685 18.4936 29.9781 18.2291C30.0876 17.9646 30.144 17.6811 30.144 17.3948C30.144 17.1086 30.0876 16.8251 29.9781 16.5606C29.8685 16.2961 29.7079 16.0558 29.5055 15.8534C29.3031 15.6509 29.0627 15.4903 28.7983 15.3808C28.5338 15.2712 28.2503 15.2148 27.964 15.2148C27.3858 15.2148 26.8313 15.4445 26.4225 15.8534C26.0137 16.2622 25.784 16.8167 25.784 17.3948C25.784 17.973 26.0137 18.5275 26.4225 18.9363C26.8313 19.3452 27.3858 19.5748 27.964 19.5748ZM18.714 26.1818C19.2922 26.1818 19.8467 25.9522 20.2555 25.5433C20.6643 25.1345 20.894 24.58 20.894 24.0018C20.894 23.4237 20.6643 22.8692 20.2555 22.4604C19.8467 22.0515 19.2922 21.8218 18.714 21.8218C18.1358 21.8218 17.5813 22.0515 17.1725 22.4604C16.7637 22.8692 16.534 23.4237 16.534 24.0018C16.534 24.58 16.7637 25.1345 17.1725 25.5433C17.5813 25.9522 18.1358 26.1818 18.714 26.1818ZM25.321 32.7898C25.8993 32.7898 26.4539 32.5601 26.8628 32.1512C27.2718 31.7423 27.502 31.1871 27.502 30.6088C27.502 30.0305 27.2718 29.4764 26.8628 29.0675C26.4539 28.6586 25.8993 28.4288 25.321 28.4288C24.7428 28.4288 24.1883 28.6585 23.7795 29.0674C23.3707 29.4762 23.141 30.0307 23.141 30.6088C23.141 31.187 23.3707 31.7415 23.7795 32.1503C24.1883 32.5592 24.7428 32.7898 25.321 32.7898Z" fill="#24D998"/>
    <path d="M33.25 24.0018H20.895M16.534 24.0018H14.75M16.534 24.0018C16.534 23.4237 16.7637 22.8692 17.1725 22.4604C17.5813 22.0515 18.1358 21.8218 18.714 21.8218C19.2922 21.8218 19.8467 22.0515 20.2555 22.4604C20.6643 22.8692 20.894 23.4237 20.894 24.0018C20.894 24.58 20.6643 25.1345 20.2555 25.5433C19.8467 25.9522 19.2922 26.1818 18.714 26.1818C18.1358 26.1818 17.5813 25.9522 17.1725 25.5433C16.7637 25.1345 16.534 24.58 16.534 24.0018ZM33.25 30.6088H27.502M27.502 30.6088C27.502 31.1871 27.2718 31.7423 26.8628 32.1512C26.4539 32.5601 25.8993 32.7898 25.321 32.7898C24.7428 32.7898 24.1883 32.5592 23.7795 32.1503C23.3707 31.7415 23.141 31.187 23.141 30.6088M27.502 30.6088C27.502 30.0305 27.2718 29.4764 26.8628 29.0675C26.4539 28.6586 25.8993 28.4288 25.321 28.4288C24.7428 28.4288 24.1883 28.6585 23.7795 29.0674C23.3707 29.4762 23.141 30.0307 23.141 30.6088M23.141 30.6088H14.75M33.25 17.3948H30.145M25.784 17.3948H14.75M25.784 17.3948C25.784 16.8167 26.0137 16.2622 26.4225 15.8534C26.8313 15.4445 27.3858 15.2148 27.964 15.2148C28.2503 15.2148 28.5338 15.2712 28.7983 15.3808C29.0627 15.4903 29.3031 15.6509 29.5055 15.8534C29.7079 16.0558 29.8685 16.2961 29.9781 16.5606C30.0876 16.8251 30.144 17.1086 30.144 17.3948C30.144 17.6811 30.0876 17.9646 29.9781 18.2291C29.8685 18.4936 29.7079 18.7339 29.5055 18.9363C29.3031 19.1388 29.0627 19.2993 28.7983 19.4089C28.5338 19.5185 28.2503 19.5748 27.964 19.5748C27.3858 19.5748 26.8313 19.3452 26.4225 18.9363C26.0137 18.5275 25.784 17.973 25.784 17.3948Z" stroke="#24D998" stroke-width="1.5" stroke-miterlimit="10" stroke-linecap="round"/>
    </svg>
    