<svg width="48" height="48" viewBox="0 0 48 48" fill="none" xmlns="http://www.w3.org/2000/svg">
    <path d="M0 24C0 10.7452 10.7452 0 24 0C37.2548 0 48 10.7452 48 24C48 37.2548 37.2548 48 24 48C10.7452 48 0 37.2548 0 24Z" fill="#EBEEF1"/>
    <path d="M32.75 24C32.7507 23.193 32.6392 22.3898 32.4188 21.6135L32.3156 21.25H31.9378H28.3275H27.7444L27.8334 21.8262C28.0556 23.2669 28.0556 24.7331 27.8334 26.1738L27.7444 26.75H28.3275H31.9378H32.3156L32.4188 26.3865C32.6392 25.6102 32.7507 24.807 32.75 24ZM32.75 24C32.75 24.0001 32.75 24.0003 32.75 24.0004L32.25 24L32.75 23.9996C32.75 23.9997 32.75 23.9999 32.75 24ZM15.25 24C15.2493 24.807 15.3608 25.6102 15.5812 26.3865L15.6844 26.75H16.0622H19.6725H20.2556L20.1667 26.1738C19.9444 24.7331 19.9444 23.2669 20.1667 21.8262L20.2556 21.25H19.6725H16.0622H15.6844L15.5812 21.6135C15.3608 22.3898 15.2493 23.193 15.25 24ZM15.25 24C15.25 23.9999 15.25 23.9997 15.25 23.9996L15.75 24L15.25 24.0004C15.25 24.0003 15.25 24.0001 15.25 24ZM19.6725 26.25H19.1668C19.1706 26.2754 19.1744 26.3008 19.1784 26.3262L19.6725 26.25ZM19.6725 26.25V25.75H19.6041C19.624 25.9169 19.6468 26.0836 19.6725 26.25ZM19.6725 21.75V22.25H19.6041C19.624 22.0831 19.6468 21.9164 19.6725 21.75ZM19.6725 21.75L19.1784 21.6738C19.1744 21.6992 19.1706 21.7246 19.1668 21.75H19.6725ZM21.5625 27.25H20.8869L21.0843 27.8961C21.5874 29.5423 22.4597 31.052 23.6346 32.31L23.9999 32.7011L24.3653 32.3102C25.5409 31.0524 26.4132 29.5426 26.9157 27.8959L27.1129 27.25H26.4375H21.5625ZM20.7042 26.3352L20.7759 26.75H21.1969H26.8106H27.2316L27.3033 26.3352C27.5706 24.7899 27.5706 23.2101 27.3033 21.6648L27.2316 21.25H26.8106H21.1969H20.7759L20.7042 21.6648C20.4369 23.2101 20.4369 24.7899 20.7042 26.3352ZM26.4375 20.75H27.1131L26.9157 20.1039C26.4126 18.4577 25.5403 16.948 24.3654 15.69L24.0002 15.2989L23.6347 15.6898C22.4592 16.9476 21.5868 18.4574 21.0843 20.1041L20.8872 20.75H21.5625H26.4375ZM27.5217 20.3815L27.6221 20.75H28.0041H31.3434H31.3472H32.165L31.7922 20.0221C31.2154 18.8958 30.4018 17.9075 29.4072 17.125C28.4127 16.3426 27.2607 15.7844 26.0302 15.4888L24.6806 15.1646L25.5135 16.275C26.4359 17.5049 27.1173 18.8982 27.5217 20.3815ZM22.4866 16.275L23.3194 15.1646L21.9698 15.4888C20.7393 15.7844 19.5873 16.3426 18.5928 17.125C17.5983 17.9075 16.7847 18.8958 16.2078 20.0221L15.835 20.75H16.6528H19.9959H20.3779L20.4783 20.3815C20.8827 18.8982 21.5641 17.5049 22.4866 16.275ZM16.6528 27.25H15.835L16.2078 27.9779C16.7847 29.1042 17.5983 30.0925 18.5928 30.875C19.5873 31.6574 20.7393 32.2156 21.9698 32.5112L23.3194 32.8354L22.4866 31.725C21.5641 30.4951 20.8827 29.1018 20.4783 27.6185L20.3779 27.25H19.9959H16.6528ZM25.5135 31.725L24.6806 32.8354L26.0302 32.5112C27.2607 32.2156 28.4127 31.6574 29.4072 30.875C30.4018 30.0925 31.2154 29.1042 31.7922 27.9779L32.165 27.25H31.3472H28.0041H27.6221L27.5217 27.6185C27.1173 29.1018 26.4359 30.4951 25.5135 31.725ZM18.861 16.3089C20.3821 15.2926 22.1703 14.7501 23.9997 14.75C26.4522 14.7529 28.8033 15.7284 30.5375 17.4626C32.2717 19.1968 33.2472 21.548 33.25 24.0006C33.2499 25.8299 32.7074 27.618 31.6911 29.139C30.6747 30.6602 29.23 31.8458 27.5398 32.5459C25.8496 33.246 23.9897 33.4292 22.1954 33.0723C20.4011 32.7154 18.7529 31.8344 17.4593 30.5407C16.1656 29.2471 15.2847 27.5989 14.9277 25.8046C14.5708 24.0103 14.754 22.1504 15.4541 20.4602C16.1542 18.77 17.3398 17.3253 18.861 16.3089Z" fill="#24D998" stroke="#24D998"/>
    </svg>
    