<svg width="273" height="268" viewBox="0 0 273 268" fill="none" xmlns="http://www.w3.org/2000/svg">
    <g opacity="0.2" filter="url(#filter0_f_1530_22764)">
    <path d="M136.137 80.0014C105.133 80.0014 79.9996 104.147 79.9996 133.932C79.9996 163.718 105.133 187.863 136.137 187.863C167.142 187.863 192.275 163.718 192.275 133.932C192.275 104.147 167.142 80.0014 136.137 80.0014Z" fill="#24D998"/>
    </g>
    <path d="M114.184 160.289C111.542 159.617 109.723 157.85 107.949 155.922C103.068 150.622 98.1024 145.394 93.1685 140.139C92.0426 138.94 91.441 137.593 91.8483 135.925C92.2578 134.247 93.2897 133.125 94.9628 132.66C96.6276 132.197 98.1525 132.546 99.3557 133.797C101.699 136.233 104.001 138.709 106.314 141.172C109.194 144.24 112.066 147.313 114.945 150.382C115.154 150.605 115.367 150.822 115.653 151.12C116.165 150.572 116.628 150.074 117.092 149.578C129.667 136.171 142.248 122.768 154.813 109.352C156.152 107.922 157.697 107.214 159.646 107.765C162.828 108.664 163.976 112.343 161.804 114.839C159.926 116.996 157.915 119.038 155.957 121.127C144.659 133.179 133.348 145.22 122.066 157.286C120.679 158.77 119.016 159.708 117.103 160.289H114.184Z" fill="#24D998"/>
    <path d="M140.637 159.067C138.761 159.03 137.361 158.187 136.588 156.513C135.778 154.759 136.068 153.085 137.397 151.657C141.51 147.243 145.644 142.846 149.771 138.444C158.876 128.736 167.984 119.028 177.091 109.321C179.065 107.218 181.804 106.997 183.719 108.774C185.553 110.475 185.607 113.18 183.796 115.124C179.874 119.34 175.932 123.537 171.99 127.738C162.741 137.597 153.487 147.448 144.244 157.313C143.258 158.367 142.147 159.096 140.632 159.067H140.637Z" fill="#24D998"/>
    <defs>
    <filter id="filter0_f_1530_22764" x="0" y="0" width="272.275" height="267.863" filterUnits="userSpaceOnUse" color-interpolation-filters="sRGB">
    <feFlood flood-opacity="0" result="BackgroundImageFix"/>
    <feBlend mode="normal" in="SourceGraphic" in2="BackgroundImageFix" result="shape"/>
    <feGaussianBlur stdDeviation="40" result="effect1_foregroundBlur_1530_22764"/>
    </filter>
    </defs>
    </svg>
    