<svg width="48" height="48" viewBox="0 0 48 48" fill="none" xmlns="http://www.w3.org/2000/svg">
    <path d="M0 24C0 10.7452 10.7452 0 24 0C37.2548 0 48 10.7452 48 24C48 37.2548 37.2548 48 24 48C10.7452 48 0 37.2548 0 24Z" fill="#EBEEF1"/>
    <path d="M32.2502 15.501H32.2633L32.2763 15.5003C32.3308 15.4975 32.3848 15.5126 32.4299 15.5433C32.4749 15.5739 32.5087 15.6183 32.5261 15.6699C32.5262 15.67 32.5262 15.6702 32.5263 15.6703L34.008 20.1153C34.0089 20.1384 34.0078 20.1615 34.0047 20.1844L34.0002 20.2175V20.251V24.751C34.0002 24.8173 33.9739 24.8809 33.927 24.9278C33.8801 24.9747 33.8165 25.001 33.7502 25.001H33.0002H32.5002V25.501V32.501H21.5002V25.501V25.001H21.0002H16.5002H16.0002V25.501V32.501H15.5002V25.501V25.001H15.0002H14.2502C14.1839 25.001 14.1203 24.9747 14.0734 24.9278C14.0266 24.8809 14.0002 24.8173 14.0002 24.751V20.251V20.2175L13.9958 20.1844C13.9927 20.1615 13.9916 20.1384 13.9925 20.1153L15.4742 15.6703C15.4742 15.6702 15.4743 15.6701 15.4743 15.6699C15.4917 15.6183 15.5255 15.5739 15.5706 15.5433C15.6157 15.5126 15.6696 15.4975 15.7242 15.5003L15.7372 15.501H15.7502H32.2502ZM31.5002 32.001H32.0002V31.501V25.501V25.001H31.5002H22.5002H22.0002V25.501V31.501V32.001H22.5002H31.5002ZM33.0002 24.501H33.5002V24.001V20.371V20.2899L33.4746 20.2129L32.1846 16.3429L32.0706 16.001H31.7102H16.2902H15.9298L15.8159 16.3429L14.5259 20.2129L14.5002 20.2899V20.371V24.001V24.501H15.0002H18.0002H18.5002V24.001V21.501H19.0002V24.001V24.501H19.5002H23.2502H23.7502V24.001V21.501H24.2502V24.001V24.501H24.7502H28.5002H29.0002V24.001V21.501H29.5002V24.001V24.501H30.0002H33.0002Z" stroke="#24D998"/>
    </svg>
    