<svg width="20" height="20" viewBox="0 0 20 20" fill="none" xmlns="http://www.w3.org/2000/svg">
    <path d="M14.9773 17.4999C16.7345 16.3363 18.0276 14.5929 18.6312 12.5737C19.2348 10.5544 19.1106 8.38741 18.2803 6.45034C17.45 4.51327 15.9662 2.92902 14.0876 1.97374C12.209 1.01847 10.0547 0.752758 8.00034 1.22293M14.9773 17.4999V13.9999M14.9773 17.4999H18.5003M5.00034 2.51593C3.24924 3.68384 1.96288 5.42855 1.36494 7.44667C0.766996 9.46479 0.895307 11.6286 1.72756 13.562C2.5598 15.4953 4.04334 17.0757 5.92019 18.0285C7.79704 18.9813 9.94846 19.2461 12.0003 18.7769M5.00034 2.51593V5.99993M5.00034 2.51593H1.50034" stroke="#686D74" stroke-width="1.5" stroke-linecap="round" stroke-linejoin="round"/>
    </svg>
    