<svg width="24" height="24" viewBox="0 0 24 24" fill="none" xmlns="http://www.w3.org/2000/svg">
    <path d="M12 24C18.6274 24 24 18.6274 24 12C24 5.37258 18.6274 0 12 0C5.37258 0 0 5.37258 0 12C0 18.6274 5.37258 24 12 24Z" fill="#26A17B"/>
    <path fill-rule="evenodd" clip-rule="evenodd" d="M13.4414 13.0363V13.0348C13.3589 13.0408 12.9336 13.0663 11.9849 13.0663C11.2274 13.0663 10.6941 13.0438 10.5066 13.0348V13.037C7.5906 12.9088 5.4141 12.401 5.4141 11.7935C5.4141 11.1868 7.5906 10.679 10.5066 10.5485V12.5315C10.6971 12.545 11.2431 12.5773 11.9976 12.5773C12.9029 12.5773 13.3566 12.5398 13.4414 12.5323V10.55C16.3514 10.6798 18.5226 11.1875 18.5226 11.7935C18.5226 12.401 16.3514 12.9073 13.4414 13.0363ZM13.4414 10.3438V8.56928H17.5019V5.86328H6.4461V8.56928H10.5066V10.343C7.2066 10.4945 4.72485 11.1485 4.72485 11.9315C4.72485 12.7145 7.2066 13.3678 10.5066 13.52V19.2065H13.4414V13.5185C16.7361 13.367 19.2119 12.7138 19.2119 11.9315C19.2119 11.1493 16.7361 10.496 13.4414 10.3438Z" fill="white"/>
    </svg>
    