<svg width="17" height="18" viewBox="0 0 17 18" fill="none" xmlns="http://www.w3.org/2000/svg">
<path d="M14.569 7.47576H15.0563C15.2007 7.47576 15.3181 7.42161 15.4083 7.31331C15.4986 7.20501 15.5437 7.08768 15.5437 6.96133C15.5437 6.83499 15.4986 6.71766 15.4083 6.60936C15.3181 6.50106 15.2007 6.44691 15.0563 6.44691H13.8109L13.0528 5.14732C12.8001 4.75022 12.4842 4.44337 12.1052 4.22677C11.7261 4.01017 11.302 3.90187 10.8327 3.90187H6.06748C5.59818 3.90187 5.17401 4.01017 4.79496 4.22677C4.41591 4.44337 4.10003 4.75022 3.84734 5.14732L3.08924 6.44691H1.84379C1.69939 6.44691 1.58207 6.50106 1.49182 6.60936C1.40157 6.71766 1.35645 6.83499 1.35645 6.96133C1.35645 7.08768 1.40157 7.20501 1.49182 7.31331C1.58207 7.42161 1.69939 7.47576 1.84379 7.47576H2.38529L2.06039 7.85481C1.59109 8.5046 1.35645 9.2266 1.35645 10.0208V12.5658C1.35645 12.9629 1.50084 13.3149 1.78964 13.6218C2.07844 13.9286 2.43944 14.082 2.87264 14.082H3.90149C4.29858 14.082 4.65056 13.9286 4.95741 13.6218C5.26425 13.3149 5.41768 12.9629 5.41768 12.5658H11.4825C11.4825 12.9629 11.6359 13.3149 11.9427 13.6218C12.2496 13.9286 12.6016 14.082 12.9986 14.082H14.0275C14.4607 14.082 14.8217 13.9286 15.1105 13.6218C15.3993 13.3149 15.5437 12.9629 15.5437 12.5658V10.0208C15.5437 9.2266 15.309 8.5046 14.8397 7.85481L14.569 7.47576ZM4.71373 5.68882C4.85813 5.43612 5.04766 5.24659 5.2823 5.12024C5.51695 4.99389 5.77868 4.93072 6.06748 4.93072H10.8327C11.1215 4.93072 11.3832 4.99389 11.6178 5.12024C11.8525 5.24659 12.042 5.43612 12.1864 5.68882L12.8362 6.82596L12.5113 7.04256C12.0781 7.33136 11.6088 7.47576 11.1034 7.47576H5.79673C5.29133 7.47576 4.82203 7.33136 4.38883 7.04256L4.06393 6.82596L4.71373 5.68882ZM14.569 12.5658C14.569 12.6741 14.5148 12.7824 14.4065 12.8907C14.2982 12.999 14.1719 13.0532 14.0275 13.0532H12.9986C12.8903 13.0532 12.7821 12.999 12.6737 12.8907C12.5655 12.7824 12.5113 12.6741 12.5113 12.5658V12.0243C12.5113 11.8799 12.4662 11.7626 12.3759 11.6724C12.2857 11.5821 12.1684 11.537 12.024 11.537H4.87618C4.73178 11.537 4.61446 11.5821 4.52421 11.6724C4.43396 11.7626 4.38883 11.8799 4.38883 12.0243V12.5658C4.38883 12.6741 4.33468 12.7824 4.22638 12.8907C4.11808 12.999 4.00978 13.0532 3.90149 13.0532H2.87264C2.72824 13.0532 2.60189 12.999 2.49359 12.8907C2.38529 12.7824 2.33114 12.6741 2.33114 12.5658V10.0208C2.36724 9.4432 2.54774 8.9378 2.87264 8.5046L3.46829 7.63821L3.84734 7.90896C4.46103 8.30605 5.11083 8.5046 5.79673 8.5046H11.1034C11.7893 8.5046 12.4391 8.30605 13.0528 7.90896L13.4318 7.63821L14.0275 8.5046C14.3524 8.9378 14.5148 9.4432 14.5148 10.0208V12.5658H14.569ZM12.5113 10.0208C12.5113 10.1652 12.5564 10.2825 12.6467 10.3728C12.7369 10.463 12.8542 10.5081 12.9986 10.5081C13.143 10.5081 13.2694 10.463 13.3777 10.3728C13.486 10.2825 13.5401 10.1652 13.5401 10.0208C13.5401 9.8764 13.486 9.75005 13.3777 9.64175C13.2694 9.53345 13.143 9.4793 12.9986 9.4793C12.8542 9.4793 12.7369 9.53345 12.6467 9.64175C12.5564 9.75005 12.5113 9.8764 12.5113 10.0208ZM3.35999 10.0208C3.35999 10.1652 3.41414 10.2825 3.52244 10.3728C3.63074 10.463 3.75709 10.5081 3.90149 10.5081C4.04588 10.5081 4.16321 10.463 4.25346 10.3728C4.34371 10.2825 4.38883 10.1652 4.38883 10.0208C4.38883 9.8764 4.34371 9.75005 4.25346 9.64175C4.16321 9.53345 4.04588 9.4793 3.90149 9.4793C3.75709 9.4793 3.63074 9.53345 3.52244 9.64175C3.41414 9.75005 3.35999 9.8764 3.35999 10.0208Z" fill="#24D998"/>
</svg>
