<svg width="21" height="21" viewBox="0 0 21 21" fill="none" xmlns="http://www.w3.org/2000/svg">
<path d="M16.6718 5.66456C16.5053 5.16504 16.0058 4.83203 15.5063 4.83203H6.34843C5.76566 4.83203 5.34939 5.16504 5.18289 5.66456L3.43457 10.6598V17.32C3.43457 17.7363 3.85084 18.1525 4.2671 18.1525H5.09963C5.59915 18.1525 5.93217 17.7363 5.93217 17.32V16.4875H15.9226V17.32C15.9226 17.7363 16.3388 18.1525 16.7551 18.1525H17.5876C18.0039 18.1525 18.4201 17.7363 18.4201 17.32V10.6598L16.6718 5.66456ZM6.59819 6.4971H15.1733L16.0891 8.99469H5.76566L6.59819 6.4971ZM16.7551 14.8224H5.09963V10.6598H16.7551V14.8224ZM7.18096 11.4923C7.84699 11.4923 8.42976 12.0751 8.42976 12.7411C8.42976 13.4071 7.84699 13.9899 7.18096 13.9899C6.51494 13.9899 5.93217 13.4071 5.93217 12.7411C5.93217 12.0751 6.51494 11.4923 7.18096 11.4923ZM14.6738 11.4923C15.3398 11.4923 15.9226 12.0751 15.9226 12.7411C15.9226 13.4071 15.3398 13.9899 14.6738 13.9899C14.0077 13.9899 13.425 13.4071 13.425 12.7411C13.425 12.0751 14.0077 11.4923 14.6738 11.4923Z" fill="#686D74"/>
</svg>
