<svg width="21" height="21" viewBox="0 0 21 21" fill="none" xmlns="http://www.w3.org/2000/svg">
<path d="M16.5637 3.99219C17.0053 3.99219 17.4288 4.16761 17.7411 4.47987C18.0533 4.79213 18.2287 5.21565 18.2287 5.65725V15.6476C18.2287 16.0892 18.0533 16.5128 17.7411 16.825C17.4288 17.1373 17.0053 17.3127 16.5637 17.3127H4.90823C4.46663 17.3127 4.04311 17.1373 3.73085 16.825C3.41859 16.5128 3.24316 16.0892 3.24316 15.6476V5.65725C3.24316 5.21565 3.41859 4.79213 3.73085 4.47987C4.04311 4.16761 4.46663 3.99219 4.90823 3.99219H16.5637ZM16.5637 8.98738H4.90823V14.8151C4.90826 15.019 4.98312 15.2158 5.11862 15.3682C5.25412 15.5206 5.44084 15.618 5.64335 15.6418L5.74076 15.6476H15.7311C15.9351 15.6476 16.1319 15.5727 16.2843 15.4372C16.4366 15.3017 16.534 15.115 16.5578 14.9125L16.5637 14.8151V8.98738ZM5.74076 5.65725C5.51996 5.65725 5.3082 5.74496 5.15207 5.90109C4.99594 6.05722 4.90823 6.26898 4.90823 6.48978C4.90823 6.71058 4.99594 6.92234 5.15207 7.07847C5.3082 7.2346 5.51996 7.32232 5.74076 7.32232C5.96156 7.32232 6.17332 7.2346 6.32945 7.07847C6.48558 6.92234 6.57329 6.71058 6.57329 6.48978C6.57329 6.26898 6.48558 6.05722 6.32945 5.90109C6.17332 5.74496 5.96156 5.65725 5.74076 5.65725ZM8.23836 5.65725C8.01756 5.65725 7.8058 5.74496 7.64967 5.90109C7.49354 6.05722 7.40582 6.26898 7.40582 6.48978C7.40582 6.71058 7.49354 6.92234 7.64967 7.07847C7.8058 7.2346 8.01756 7.32232 8.23836 7.32232C8.45916 7.32232 8.67092 7.2346 8.82705 7.07847C8.98318 6.92234 9.07089 6.71058 9.07089 6.48978C9.07089 6.26898 8.98318 6.05722 8.82705 5.90109C8.67092 5.74496 8.45916 5.65725 8.23836 5.65725ZM10.736 5.65725C10.5152 5.65725 10.3034 5.74496 10.1473 5.90109C9.99113 6.05722 9.90342 6.26898 9.90342 6.48978C9.90342 6.71058 9.99113 6.92234 10.1473 7.07847C10.3034 7.2346 10.5152 7.32232 10.736 7.32232C10.9568 7.32232 11.1685 7.2346 11.3246 7.07847C11.4808 6.92234 11.5685 6.71058 11.5685 6.48978C11.5685 6.26898 11.4808 6.05722 11.3246 5.90109C11.1685 5.74496 10.9568 5.65725 10.736 5.65725Z" fill="#686D74"/>
</svg>
