<svg width="17" height="17" viewBox="0 0 17 17" fill="none" xmlns="http://www.w3.org/2000/svg">
<g clip-path="url(#clip0_1530_25213)">
<path d="M16.0306 11.3568C16.3916 10.4182 16.5721 9.4616 16.5721 8.48691C16.5721 7.40391 16.3645 6.36604 15.9494 5.37329C15.5342 4.38055 14.9476 3.50513 14.1895 2.74703C13.4314 1.98893 12.556 1.40231 11.5632 0.987162C10.5705 0.572012 9.53261 0.364439 8.44962 0.364439C7.36662 0.364439 6.32875 0.572012 5.336 0.987162C4.34326 1.40231 3.46784 1.98893 2.70974 2.74703C1.95164 3.50513 1.36502 4.38055 0.949871 5.37329C0.534723 6.36604 0.327148 7.40391 0.327148 8.48691C0.327148 9.5699 0.534723 10.6078 0.949871 11.6005C1.36502 12.5933 1.95164 13.4687 2.70974 14.2268C3.46784 14.9849 4.34326 15.5715 5.336 15.9867C6.32875 16.4018 7.36662 16.6094 8.44962 16.6094C9.96581 16.6094 11.3737 16.2123 12.6733 15.4181C12.8177 15.3459 12.9079 15.2195 12.944 15.039C12.9801 14.8585 12.9531 14.6961 12.8628 14.5517C12.7726 14.4073 12.6462 14.317 12.4838 14.2809C12.3213 14.2448 12.1499 14.2629 11.9694 14.3351C11.5362 14.6239 11.0488 14.8585 10.5073 15.039C10.5434 13.4506 10.8683 12.3496 11.482 11.7359C11.8791 11.3388 12.3845 11.1402 12.9982 11.1402C13.5036 11.1402 14.0451 11.2666 14.6227 11.5193C14.4783 11.772 14.3158 12.0247 14.1353 12.2774C14.027 12.4218 13.9909 12.5842 14.027 12.7647C14.0631 12.9452 14.1534 13.0806 14.2978 13.1709C14.4422 13.2611 14.6046 13.2882 14.7851 13.2521C14.9656 13.216 15.11 13.1257 15.2183 12.9813C15.5071 12.512 15.7598 12.0247 15.9764 11.5193L16.0306 11.3568ZM8.44962 1.60988C9.56871 1.60988 10.6066 1.86258 11.5632 2.36798C12.5199 2.87338 13.3231 3.55928 13.9729 4.42567C14.6227 5.29207 15.0378 6.26677 15.2183 7.34976C14.3158 7.02486 13.3953 6.75411 12.4567 6.53751C11.0127 6.21262 9.66799 6.05017 8.42254 6.05017C7.1771 6.05017 5.85043 6.19457 4.44253 6.48337C3.50394 6.69996 2.58339 6.97071 1.68089 7.29561C1.89749 6.24872 2.32167 5.29207 2.95341 4.42567C3.58516 3.55928 4.37936 2.87338 5.336 2.36798C6.29265 1.86258 7.33052 1.60988 8.44962 1.60988ZM2.27654 11.5193C2.89024 11.2666 3.43174 11.1402 3.90103 11.1402H3.95518C4.64108 11.1402 5.16453 11.3749 5.52553 11.8442C6.06703 12.494 6.35582 13.5589 6.39192 15.039C5.48943 14.7502 4.68621 14.299 3.98226 13.6853C3.27831 13.0716 2.70974 12.3496 2.27654 11.5193ZM12.9982 9.8948C12.0235 9.8948 11.2293 10.2017 10.6156 10.8153C9.71311 11.7178 9.26186 13.1979 9.26186 15.2556V15.3098C8.97306 15.3459 8.70232 15.3639 8.44962 15.3639C8.19692 15.3639 7.92617 15.3459 7.63737 15.3098V15.2556C7.63737 13.1979 7.20417 11.7178 6.33777 10.8153C5.72408 10.2017 4.92988 9.8948 3.95518 9.8948H3.90103C3.25124 9.8948 2.56534 10.0392 1.84334 10.328C1.69894 9.7865 1.60869 9.245 1.57259 8.70351C2.29459 8.41471 3.10684 8.16201 4.00933 7.94541C5.59773 7.51221 7.07782 7.29561 8.44962 7.29561C9.82141 7.29561 11.3557 7.53026 13.0523 7.99956C13.9187 8.21616 14.6588 8.45081 15.2725 8.70351C15.2725 9.245 15.2003 9.7865 15.0559 10.328C14.3339 10.0392 13.648 9.8948 12.9982 9.8948ZM10.6156 9.08255C10.6156 9.26305 10.5524 9.41648 10.4261 9.54283C10.2997 9.66918 10.1463 9.73235 9.96581 9.73235H6.87927C6.69877 9.73235 6.55437 9.66918 6.44607 9.54283C6.33777 9.41648 6.28363 9.26305 6.28363 9.08255C6.28363 8.90206 6.33777 8.74863 6.44607 8.62228C6.55437 8.49593 6.69877 8.43276 6.87927 8.43276H9.96581C10.1463 8.43276 10.2997 8.49593 10.4261 8.62228C10.5524 8.74863 10.6156 8.90206 10.6156 9.08255Z" fill="#24D998"/>
</g>
<defs>
<clipPath id="clip0_1530_25213">
<rect width="16.2449" height="16.2449" fill="white" transform="matrix(1 0 0 -1 0.328125 16.6094)"/>
</clipPath>
</defs>
</svg>
