<svg width="9" height="9" viewBox="0 0 9 9" fill="none" xmlns="http://www.w3.org/2000/svg">
<g clip-path="url(#clip0_1530_24783)">
<path d="M0.380859 4.70232V1.39178C0.380859 0.961823 0.729401 0.613281 1.15936 0.613281H4.4699C4.67637 0.613282 4.87439 0.695303 5.02038 0.841301L8.45685 4.27777C8.76087 4.58179 8.76087 5.07471 8.45685 5.37873L5.14631 8.68927C4.84228 8.99329 4.34936 8.99329 4.04534 8.68927L0.608879 5.2528C0.462882 5.10681 0.38086 4.90879 0.380859 4.70232H0.380859ZM2.19736 1.65128C1.7674 1.65128 1.41886 1.99982 1.41886 2.42978C1.41886 2.85974 1.7674 3.20828 2.19736 3.20828C2.62732 3.20828 2.97586 2.85974 2.97586 2.42978C2.97586 1.99982 2.62732 1.65128 2.19736 1.65128Z" fill="black"/>
</g>
<defs>
<clipPath id="clip0_1530_24783">
<rect width="8.30401" height="8.30401" fill="white" transform="translate(0.379883 0.613281)"/>
</clipPath>
</defs>
</svg>
