<svg width="17" height="17" viewBox="0 0 17 17" fill="none" xmlns="http://www.w3.org/2000/svg">
<g clip-path="url(#clip0_1530_25196)">
<path d="M9.96479 3.69761C9.96479 3.55321 9.91967 3.43588 9.82942 3.34563C9.73917 3.25538 9.62184 3.21026 9.47744 3.21026H4.38736C4.24296 3.21026 4.12564 3.25538 4.03539 3.34563C3.94514 3.43588 3.90001 3.55321 3.90001 3.69761V7.75884C3.90001 7.90324 3.94514 8.02959 4.03539 8.13789C4.12564 8.24619 4.24296 8.30034 4.38736 8.30034H9.47744C9.62184 8.30034 9.73917 8.24619 9.82942 8.13789C9.91967 8.02959 9.96479 7.90324 9.96479 7.75884V3.69761ZM8.93594 7.27149H4.87471V4.23911H8.93594V7.27149ZM15.813 4.23911L13.7553 3.26441C13.647 3.19221 13.5206 3.17416 13.3762 3.21026C13.2318 3.24636 13.1326 3.32758 13.0784 3.45393C13.0243 3.58028 13.0152 3.71566 13.0513 3.86006C13.0874 4.00446 13.1777 4.09471 13.3221 4.13081L14.0802 4.564L14.026 4.72645C14.026 5.05135 14.1253 5.34015 14.3238 5.59285C14.5224 5.84555 14.7661 6.02605 15.0549 6.13435V12.3074C15.0549 12.4518 15.0007 12.5782 14.8924 12.6865C14.7841 12.7948 14.6668 12.8489 14.5404 12.8489C14.4141 12.8489 14.2968 12.7948 14.1885 12.6865C14.0802 12.5782 14.026 12.4518 14.026 12.3074V8.24619C14.026 7.66859 13.8185 7.14514 13.4033 6.67585C12.9882 6.20655 12.5279 5.91775 12.0225 5.80945V2.66876C12.0225 2.12726 11.8239 1.65797 11.4268 1.26087C11.0297 0.86377 10.5604 0.66522 10.0189 0.66522H3.90001C3.35852 0.66522 2.88019 0.86377 2.46505 1.26087C2.0499 1.65797 1.84232 2.12726 1.84232 2.66876V14.0402L1.13838 14.4193C0.921776 14.5276 0.813477 14.672 0.813477 14.8525V16.3687C0.813477 16.5131 0.867626 16.6394 0.975926 16.7477C1.08423 16.856 1.21058 16.9102 1.35497 16.9102H12.5098C12.6542 16.9102 12.7716 16.856 12.8618 16.7477C12.9521 16.6394 12.9972 16.5131 12.9972 16.3687V14.8525C12.9972 14.672 12.9069 14.5276 12.7264 14.4193L12.0225 14.0402V6.8383C12.2752 6.9466 12.5008 7.13612 12.6994 7.40687C12.8979 7.67762 12.9972 7.95739 12.9972 8.24619V12.3074C12.9972 12.7406 13.1506 13.1106 13.4575 13.4175C13.7643 13.7243 14.1253 13.8778 14.5404 13.8778C14.9556 13.8778 15.3166 13.7243 15.6234 13.4175C15.9303 13.1106 16.0837 12.7406 16.0837 12.3074V4.72645C16.0837 4.50986 15.9935 4.34741 15.813 4.23911ZM12.0225 15.8813H1.84232V15.1774L2.60042 14.7983C2.78092 14.7261 2.87117 14.5817 2.87117 14.3651V2.66876C2.87117 2.41606 2.97044 2.19044 3.16899 1.99189C3.36754 1.79334 3.61122 1.69407 3.90001 1.69407H10.0189C10.2716 1.69407 10.4973 1.79334 10.6958 1.99189C10.8944 2.19044 10.9936 2.41606 10.9936 2.66876V14.3651C10.9936 14.5817 11.0839 14.7261 11.2644 14.7983L12.0225 15.1774V15.8813Z" fill="#24D998"/>
</g>
<defs>
<clipPath id="clip0_1530_25196">
<rect width="16.2449" height="16.2449" fill="white" transform="matrix(1 0 0 -1 0.328125 16.9102)"/>
</clipPath>
</defs>
</svg>
