<svg width="21" height="21" viewBox="0 0 21 21" fill="none" xmlns="http://www.w3.org/2000/svg">
<path d="M3.29102 7.32572C3.29102 6.66332 3.55415 6.02804 4.02254 5.55965C4.49093 5.09126 5.12621 4.82813 5.78861 4.82812H15.779C16.4414 4.82812 17.0767 5.09126 17.5451 5.55965C18.0135 6.02804 18.2766 6.66332 18.2766 7.32572V13.986C18.2766 14.6484 18.0135 15.2837 17.5451 15.752C17.0767 16.2204 16.4414 16.4836 15.779 16.4836H5.78861C5.12621 16.4836 4.49093 16.2204 4.02254 15.752C3.55415 15.2837 3.29102 14.6484 3.29102 13.986V7.32572Z" stroke="#686D74" stroke-width="1.99808" stroke-linecap="round" stroke-linejoin="round"/>
<path d="M6.62159 13.9876L9.11919 11.49M9.11919 11.49L11.6168 13.9876M9.11919 11.49C8.76703 9.96646 7.97696 8.97574 7.03786 8.99239C6.38099 8.99239 5.78906 9.55186 5.78906 10.2412C5.78906 10.9305 6.79726 11.49 7.45413 11.49H10.7843C11.4411 11.49 12.4493 10.9305 12.4493 10.2412C12.4493 9.55186 11.8574 8.99239 11.2005 8.99239C10.2614 8.97574 9.47135 9.96646 9.11919 11.49Z" stroke="#686D74" stroke-width="1.99808" stroke-linecap="round" stroke-linejoin="round"/>
</svg>
