<svg width="21" height="21" viewBox="0 0 21 21" fill="none" xmlns="http://www.w3.org/2000/svg">
<path d="M8.57849 8.15635V8.05645H8.47859H6.81353H6.71362V8.15635C6.71362 10.5426 8.58992 12.4189 10.9762 12.4189C13.3625 12.4189 15.2388 10.5426 15.2388 8.15635V8.05645H15.1388H13.4738H13.3739V8.15635C13.3739 9.51648 12.3363 10.554 10.9762 10.554C9.61606 10.554 8.57849 9.51648 8.57849 8.15635ZM16.8039 5.55885H15.2377C15.1861 3.22033 13.329 1.39619 10.9762 1.39619C8.62332 1.39619 6.76625 3.22033 6.71472 5.55885H5.14846C4.1775 5.55885 3.38349 6.35286 3.38349 7.32382V17.3142C3.38349 18.2852 4.1775 19.0792 5.14846 19.0792H16.8039C17.7749 19.0792 18.5689 18.2852 18.5689 17.3142V7.32382C18.5689 6.35286 17.7749 5.55885 16.8039 5.55885ZM10.9762 3.26106C12.3028 3.26106 13.3226 4.24814 13.372 5.55885H8.58037C8.6298 4.24814 9.64956 3.26106 10.9762 3.26106ZM5.24837 17.2143V7.42372H16.704V17.2143H5.24837Z" fill="#1B65FF" stroke="#1B65FF" stroke-width="0.199808"/>
</svg>
