<svg width="21" height="21" viewBox="0 0 21 21" fill="none" xmlns="http://www.w3.org/2000/svg">
<path d="M10.88 17.3176C12.6464 17.3176 14.3405 16.6159 15.5895 15.3669C16.8386 14.1178 17.5403 12.4238 17.5403 10.6574C17.5403 8.89094 16.8386 7.19688 15.5895 5.94784C14.3405 4.6988 12.6464 3.9971 10.88 3.9971C9.1136 3.9971 7.41954 4.6988 6.1705 5.94784C4.92146 7.19688 4.21975 8.89094 4.21975 10.6574C4.21975 12.4238 4.92146 14.1178 6.1705 15.3669C7.41954 16.6159 9.1136 17.3176 10.88 17.3176ZM10.88 2.33203C11.9733 2.33203 13.0559 2.54737 14.066 2.96576C15.076 3.38415 15.9938 3.99738 16.7669 4.77046C17.54 5.54354 18.1532 6.46132 18.5716 7.47139C18.99 8.48146 19.2053 9.56406 19.2053 10.6574C19.2053 12.8654 18.3282 14.9829 16.7669 16.5442C15.2056 18.1055 13.088 18.9827 10.88 18.9827C6.27611 18.9827 2.55469 15.2363 2.55469 10.6574C2.55469 8.44934 3.43182 6.33176 4.99312 4.77046C6.55442 3.20916 8.672 2.33203 10.88 2.33203ZM11.2963 6.49469V10.8655L15.0427 13.0883L14.4183 14.1124L10.0475 11.4899V6.49469H11.2963Z" fill="#686D74"/>
</svg>
