<svg width="17" height="18" viewBox="0 0 17 18" fill="none" xmlns="http://www.w3.org/2000/svg">
<g clip-path="url(#clip0_1530_25191)">
<path d="M16.5721 10.3522C16.5721 12.1933 16.0306 13.8358 14.9476 15.2798C14.8393 15.4242 14.6949 15.5054 14.5144 15.5235C14.3339 15.5415 14.1714 15.4964 14.027 15.3881C13.8826 15.2798 13.8014 15.1444 13.7834 14.982C13.7653 14.8195 13.8104 14.6661 13.9187 14.5217C14.8573 13.2943 15.3266 11.9045 15.3266 10.3522C15.3266 9.12478 15.0198 7.98763 14.4061 6.94073C13.7924 5.89384 12.9531 5.06354 11.8881 4.44985C10.8232 3.83615 9.67701 3.5293 8.44962 3.5293C7.22222 3.5293 6.07605 3.83615 5.01111 4.44985C3.94616 5.06354 3.10684 5.89384 2.49314 6.94073C1.87944 7.98763 1.57259 9.12478 1.57259 10.3522C1.57259 11.9045 2.04189 13.2943 2.98049 14.5217C3.08879 14.6661 3.13391 14.8195 3.11586 14.982C3.09781 15.1444 3.01659 15.2798 2.87219 15.3881C2.72779 15.4964 2.56534 15.5415 2.38484 15.5235C2.20434 15.5054 2.05994 15.4242 1.95164 15.2798C0.868646 13.8358 0.327148 12.1933 0.327148 10.3522C0.327148 8.90818 0.688147 7.56346 1.41014 6.31801C2.13214 5.07257 3.11586 4.08885 4.36131 3.36685C5.60675 2.64485 6.96952 2.28385 8.44962 2.28385C9.92971 2.28385 11.2925 2.64485 12.5379 3.36685C13.7834 4.08885 14.7671 5.07257 15.4891 6.31801C16.2111 7.56346 16.5721 8.90818 16.5721 10.3522ZM12.4567 6.56169C12.6011 6.66999 12.6733 6.81439 12.6733 6.99489C12.6733 7.17538 12.6011 7.31978 12.4567 7.42808L10.399 9.53993C10.5795 9.86482 10.6698 10.2078 10.6698 10.5688C10.6698 11.1825 10.4532 11.7059 10.02 12.1391C9.58676 12.5723 9.06331 12.7889 8.44962 12.7889C7.83592 12.7889 7.31247 12.5723 6.87927 12.1391C6.44607 11.7059 6.22948 11.1825 6.22948 10.5688C6.22948 9.95507 6.44607 9.43163 6.87927 8.99843C7.31247 8.56523 7.83592 8.34863 8.44962 8.34863C8.81062 8.34863 9.15356 8.43888 9.47846 8.61938L11.5903 6.56169C11.6986 6.41729 11.843 6.34509 12.0235 6.34509C12.204 6.34509 12.3484 6.41729 12.4567 6.56169ZM9.42431 10.5688C9.42431 10.3161 9.32504 10.0995 9.12649 9.91897C8.92794 9.73847 8.70232 9.64822 8.44962 9.64822C8.19692 9.64822 7.97129 9.73847 7.77274 9.91897C7.57419 10.0995 7.47492 10.3161 7.47492 10.5688C7.47492 10.8215 7.57419 11.0471 7.77274 11.2456C7.97129 11.4442 8.19692 11.5435 8.44962 11.5435C8.70232 11.5435 8.92794 11.4442 9.12649 11.2456C9.32504 11.0471 9.42431 10.8215 9.42431 10.5688Z" fill="#24D998"/>
</g>
<defs>
<clipPath id="clip0_1530_25191">
<rect width="16.2449" height="16.2449" fill="white" transform="matrix(1 0 0 -1 0.328125 17.0117)"/>
</clipPath>
</defs>
</svg>
