<svg width="27" height="27" viewBox="0 0 27 27" fill="none" xmlns="http://www.w3.org/2000/svg">
<g clip-path="url(#clip0_1530_25165)">
<path d="M16.333 13.4648V10.4648H13.333V8.46484H16.333V5.46484H18.333V8.46484H21.333V10.4648H18.333V13.4648H16.333ZM20.283 23.4648C18.1997 23.4648 16.1413 23.0108 14.108 22.1028C12.0747 21.1948 10.2247 19.9072 8.55801 18.2398C6.89134 16.5725 5.60401 14.7225 4.69601 12.6898C3.78801 10.6572 3.33367 8.59884 3.33301 6.51484C3.33301 6.21484 3.43301 5.96484 3.63301 5.76484C3.83301 5.56484 4.08301 5.46484 4.38301 5.46484H8.43301C8.66634 5.46484 8.87467 5.54418 9.05801 5.70284C9.24134 5.86151 9.34967 6.04884 9.38301 6.26484L10.033 9.76484C10.0663 10.0315 10.058 10.2565 10.008 10.4398C9.95801 10.6232 9.86634 10.7815 9.73301 10.9148L7.30801 13.3648C7.64134 13.9815 8.03701 14.5772 8.49501 15.1518C8.95301 15.7265 9.45734 16.2808 10.008 16.8148C10.5247 17.3315 11.0663 17.8108 11.633 18.2528C12.1997 18.6948 12.7997 19.0988 13.433 19.4648L15.783 17.1148C15.933 16.9648 16.129 16.8525 16.371 16.7778C16.613 16.7032 16.8503 16.6822 17.083 16.7148L20.533 17.4148C20.7663 17.4815 20.958 17.6025 21.108 17.7778C21.258 17.9532 21.333 18.1488 21.333 18.3648V22.4148C21.333 22.7148 21.233 22.9648 21.033 23.1648C20.833 23.3648 20.583 23.4648 20.283 23.4648ZM6.35801 11.4648L8.00801 9.81484L7.58301 7.46484H5.35801C5.44134 8.14818 5.55801 8.82318 5.70801 9.48984C5.85801 10.1565 6.07467 10.8148 6.35801 11.4648ZM15.308 20.4148C15.958 20.6982 16.6207 20.9232 17.296 21.0898C17.9713 21.2565 18.6503 21.3648 19.333 21.4148V19.2148L16.983 18.7398L15.308 20.4148Z" fill="#24D998"/>
</g>
<defs>
<clipPath id="clip0_1530_25165">
<rect width="26" height="26" fill="white" transform="translate(0.333008 0.433594)"/>
</clipPath>
</defs>
</svg>
