<svg width="25" height="25" viewBox="0 0 25 25" fill="none" xmlns="http://www.w3.org/2000/svg">
<path d="M8.93301 22.9336L7.03301 19.7336L3.43301 18.9336L3.78301 15.2336L1.33301 12.4336L3.78301 9.63359L3.43301 5.93359L7.03301 5.13359L8.93301 1.93359L12.333 3.38359L15.733 1.93359L17.633 5.13359L21.233 5.93359L20.883 9.63359L23.333 12.4336L20.883 15.2336L21.233 18.9336L17.633 19.7336L15.733 22.9336L12.333 21.4836L8.93301 22.9336ZM9.78301 20.3836L12.333 19.2836L14.933 20.3836L16.333 17.9836L19.083 17.3336L18.833 14.5336L20.683 12.4336L18.833 10.2836L19.083 7.48359L16.333 6.88359L14.883 4.48359L12.333 5.58359L9.73301 4.48359L8.33301 6.88359L5.58301 7.48359L5.83301 10.2836L3.98301 12.4336L5.83301 14.5336L5.58301 17.3836L8.33301 17.9836L9.78301 20.3836ZM11.283 15.9836L16.933 10.3336L15.533 8.88359L11.283 13.1336L9.13301 11.0336L7.73301 12.4336L11.283 15.9836Z" fill="#24D998"/>
</svg>
