<svg width="17" height="17" viewBox="0 0 17 17" fill="none" xmlns="http://www.w3.org/2000/svg">
<path d="M3.03543 1.98277C2.53003 1.98277 2.09683 2.16326 1.73583 2.52426C1.37484 2.88526 1.19434 3.32749 1.19434 3.85093C1.19434 4.37438 1.37484 4.8166 1.73583 5.1776C2.09683 5.5386 2.53003 5.7191 3.03543 5.7191C3.54083 5.7191 3.97403 5.5386 4.33502 5.1776C4.69602 4.8166 4.87652 4.37438 4.87652 3.85093C4.87652 3.32749 4.69602 2.88526 4.33502 2.52426C3.97403 2.16326 3.54083 1.98277 3.03543 1.98277ZM3.03543 3.01161C3.25203 3.01161 3.45058 3.09284 3.63108 3.25529C3.81158 3.41773 3.90183 3.61628 3.90183 3.85093C3.90183 4.08558 3.81158 4.28413 3.63108 4.44658C3.45058 4.60903 3.25203 4.69025 3.03543 4.69025C2.81883 4.69025 2.62028 4.60903 2.43978 4.44658C2.25928 4.28413 2.16903 4.08558 2.16903 3.85093C2.16903 3.61628 2.25928 3.41773 2.43978 3.25529C2.62028 3.09284 2.81883 3.01161 3.03543 3.01161ZM3.03543 11.459C2.53003 11.459 2.09683 11.6395 1.73583 12.0005C1.37484 12.3615 1.19434 12.8037 1.19434 13.3271C1.19434 13.8506 1.37484 14.2928 1.73583 14.6538C2.09683 15.0148 2.53003 15.1953 3.03543 15.1953C3.54083 15.1953 3.97403 15.0148 4.33502 14.6538C4.69602 14.2928 4.87652 13.8506 4.87652 13.3271C4.87652 12.8037 4.69602 12.3615 4.33502 12.0005C3.97403 11.6395 3.54083 11.459 3.03543 11.459ZM3.03543 12.4878C3.25203 12.4878 3.45058 12.569 3.63108 12.7315C3.81158 12.8939 3.90183 13.0925 3.90183 13.3271C3.90183 13.5618 3.81158 13.7603 3.63108 13.9228C3.45058 14.0852 3.25203 14.1665 3.03543 14.1665C2.81883 14.1665 2.62028 14.0852 2.43978 13.9228C2.25928 13.7603 2.16903 13.5618 2.16903 13.3271C2.16903 13.0925 2.25928 12.8939 2.43978 12.7315C2.62028 12.569 2.81883 12.4878 3.03543 12.4878ZM8.45041 1.98277C7.94501 1.98277 7.51181 2.16326 7.15081 2.52426C6.78981 2.88526 6.60931 3.32749 6.60931 3.85093C6.60931 4.37438 6.78981 4.8166 7.15081 5.1776C7.51181 5.5386 7.94501 5.7191 8.45041 5.7191C8.95581 5.7191 9.389 5.5386 9.75 5.1776C10.111 4.8166 10.2915 4.37438 10.2915 3.85093C10.2915 3.32749 10.111 2.88526 9.75 2.52426C9.389 2.16326 8.95581 1.98277 8.45041 1.98277ZM8.45041 3.01161C8.66701 3.01161 8.86556 3.09284 9.04606 3.25529C9.22655 3.41773 9.3168 3.61628 9.3168 3.85093C9.3168 4.08558 9.22655 4.28413 9.04606 4.44658C8.86556 4.60903 8.66701 4.69025 8.45041 4.69025C8.23381 4.69025 8.03526 4.60903 7.85476 4.44658C7.67426 4.28413 7.58401 4.08558 7.58401 3.85093C7.58401 3.61628 7.67426 3.41773 7.85476 3.25529C8.03526 3.09284 8.23381 3.01161 8.45041 3.01161ZM8.45041 11.459C7.94501 11.459 7.51181 11.6395 7.15081 12.0005C6.78981 12.3615 6.60931 12.8037 6.60931 13.3271C6.60931 13.8506 6.78981 14.2928 7.15081 14.6538C7.51181 15.0148 7.94501 15.1953 8.45041 15.1953C8.95581 15.1953 9.389 15.0148 9.75 14.6538C10.111 14.2928 10.2915 13.8506 10.2915 13.3271C10.2915 12.8037 10.111 12.3615 9.75 12.0005C9.389 11.6395 8.95581 11.459 8.45041 11.459ZM8.45041 12.4878C8.66701 12.4878 8.86556 12.569 9.04606 12.7315C9.22655 12.8939 9.3168 13.0925 9.3168 13.3271C9.3168 13.5618 9.22655 13.7603 9.04606 13.9228C8.86556 14.0852 8.66701 14.1665 8.45041 14.1665C8.23381 14.1665 8.03526 14.0852 7.85476 13.9228C7.67426 13.7603 7.58401 13.5618 7.58401 13.3271C7.58401 13.0925 7.67426 12.8939 7.85476 12.7315C8.03526 12.569 8.23381 12.4878 8.45041 12.4878ZM13.8654 1.98277C13.36 1.98277 12.9268 2.16326 12.5658 2.52426C12.2048 2.88526 12.0243 3.32749 12.0243 3.85093C12.0243 4.37438 12.2048 4.8166 12.5658 5.1776C12.9268 5.5386 13.36 5.7191 13.8654 5.7191C14.3708 5.7191 14.804 5.5386 15.165 5.1776C15.526 4.8166 15.7065 4.37438 15.7065 3.85093C15.7065 3.32749 15.526 2.88526 15.165 2.52426C14.804 2.16326 14.3708 1.98277 13.8654 1.98277ZM13.8654 3.01161C14.082 3.01161 14.2805 3.09284 14.461 3.25529C14.6415 3.41773 14.7318 3.61628 14.7318 3.85093C14.7318 4.08558 14.6415 4.28413 14.461 4.44658C14.2805 4.60903 14.082 4.69025 13.8654 4.69025C13.6488 4.69025 13.4502 4.60903 13.2697 4.44658C13.0892 4.28413 12.999 4.08558 12.999 3.85093C12.999 3.61628 13.0892 3.41773 13.2697 3.25529C13.4502 3.09284 13.6488 3.01161 13.8654 3.01161ZM13.8654 11.459C13.36 11.459 12.9268 11.6395 12.5658 12.0005C12.2048 12.3615 12.0243 12.8037 12.0243 13.3271C12.0243 13.8506 12.2048 14.2928 12.5658 14.6538C12.9268 15.0148 13.36 15.1953 13.8654 15.1953C14.3708 15.1953 14.804 15.0148 15.165 14.6538C15.526 14.2928 15.7065 13.8506 15.7065 13.3271C15.7065 12.8037 15.526 12.3615 15.165 12.0005C14.804 11.6395 14.3708 11.459 13.8654 11.459ZM13.8654 12.4878C14.082 12.4878 14.2805 12.569 14.461 12.7315C14.6415 12.8939 14.7318 13.0925 14.7318 13.3271C14.7318 13.5618 14.6415 13.7603 14.461 13.9228C14.2805 14.0852 14.082 14.1665 13.8654 14.1665C13.6488 14.1665 13.4502 14.0852 13.2697 13.9228C13.0892 13.7603 12.999 13.5618 12.999 13.3271C12.999 13.0925 13.0892 12.8939 13.2697 12.7315C13.4502 12.569 13.6488 12.4878 13.8654 12.4878ZM2.54808 5.1776V11.9463C2.54808 12.0907 2.59321 12.2171 2.68346 12.3254C2.7737 12.4337 2.89103 12.4878 3.03543 12.4878C3.17983 12.4878 3.29715 12.4337 3.3874 12.3254C3.47765 12.2171 3.52278 12.1088 3.52278 12.0005V5.1776C3.52278 5.0693 3.47765 4.961 3.3874 4.8527C3.29715 4.7444 3.17983 4.69025 3.03543 4.69025C2.89103 4.69025 2.7737 4.7444 2.68346 4.8527C2.59321 4.961 2.54808 5.0693 2.54808 5.1776ZM7.96306 5.1776V11.9463C7.96306 12.0907 8.00818 12.2171 8.09843 12.3254C8.18868 12.4337 8.30601 12.4878 8.45041 12.4878C8.59481 12.4878 8.71213 12.4337 8.80238 12.3254C8.89263 12.2171 8.93776 12.1088 8.93776 12.0005V5.1776C8.93776 5.0693 8.89263 4.961 8.80238 4.8527C8.71213 4.7444 8.59481 4.69025 8.45041 4.69025C8.30601 4.69025 8.18868 4.7444 8.09843 4.8527C8.00818 4.961 7.96306 5.0693 7.96306 5.1776ZM13.378 5.1776V7.88509C13.378 7.95729 13.36 8.01144 13.3239 8.04754C13.2878 8.08364 13.2517 8.10169 13.2156 8.10169H3.03543C2.89103 8.10169 2.7737 8.14682 2.68346 8.23707C2.59321 8.32731 2.54808 8.44464 2.54808 8.58904C2.54808 8.73344 2.59321 8.85076 2.68346 8.94101C2.7737 9.03126 2.89103 9.07639 3.03543 9.07639H13.2156C13.5405 9.07639 13.8112 8.96809 14.0278 8.75149C14.2444 8.53489 14.3527 8.24609 14.3527 7.88509V5.23175C14.3527 5.08735 14.3076 4.961 14.2174 4.8527C14.1271 4.7444 14.0098 4.69025 13.8654 4.69025C13.721 4.69025 13.6037 4.7444 13.5134 4.8527C13.4232 4.961 13.378 5.0693 13.378 5.1776Z" fill="#24D998"/>
</svg>
