<svg width="25" height="25" viewBox="0 0 25 25" fill="none" xmlns="http://www.w3.org/2000/svg">
<path d="M12.333 17.4336C11.8026 17.4336 11.2939 17.2229 10.9188 16.8478C10.5437 16.4727 10.333 15.964 10.333 15.4336C10.333 14.3236 11.223 13.4336 12.333 13.4336C12.8634 13.4336 13.3721 13.6443 13.7472 14.0194C14.1223 14.3945 14.333 14.9032 14.333 15.4336C14.333 15.964 14.1223 16.4727 13.7472 16.8478C13.3721 17.2229 12.8634 17.4336 12.333 17.4336ZM18.333 20.4336V10.4336H6.33301V20.4336H18.333ZM18.333 8.43359C18.8634 8.43359 19.3721 8.64431 19.7472 9.01938C20.1223 9.39445 20.333 9.90316 20.333 10.4336V20.4336C20.333 20.964 20.1223 21.4727 19.7472 21.8478C19.3721 22.2229 18.8634 22.4336 18.333 22.4336H6.33301C5.80257 22.4336 5.29387 22.2229 4.91879 21.8478C4.54372 21.4727 4.33301 20.964 4.33301 20.4336V10.4336C4.33301 9.32359 5.22301 8.43359 6.33301 8.43359H7.33301V6.43359C7.33301 5.10751 7.85979 3.83574 8.79747 2.89806C9.73516 1.96038 11.0069 1.43359 12.333 1.43359C12.9896 1.43359 13.6398 1.56292 14.2464 1.8142C14.8531 2.06547 15.4042 2.43377 15.8685 2.89806C16.3328 3.36235 16.7011 3.91355 16.9524 4.52018C17.2037 5.1268 17.333 5.77698 17.333 6.43359V8.43359H18.333ZM12.333 3.43359C11.5374 3.43359 10.7743 3.74966 10.2117 4.31227C9.64908 4.87488 9.33301 5.63794 9.33301 6.43359V8.43359H15.333V6.43359C15.333 5.63794 15.0169 4.87488 14.4543 4.31227C13.8917 3.74966 13.1287 3.43359 12.333 3.43359Z" fill="#24D998"/>
</svg>
