<svg width="17" height="17" viewBox="0 0 17 17" fill="none" xmlns="http://www.w3.org/2000/svg">
<g clip-path="url(#clip0_1530_25202)">
<path d="M13.4314 1.81301H12.8357V1.21736C12.8357 1.03686 12.7726 0.883437 12.6462 0.757088C12.5199 0.630739 12.3665 0.567564 12.186 0.567564C12.0055 0.567564 11.852 0.630739 11.7257 0.757088C11.5993 0.883437 11.5362 1.03686 11.5362 1.21736V1.81301H5.36308V1.21736C5.36308 1.03686 5.2999 0.883437 5.17355 0.757088C5.0472 0.630739 4.89378 0.567564 4.71328 0.567564C4.53278 0.567564 4.37936 0.630739 4.25301 0.757088C4.12666 0.883437 4.06348 1.03686 4.06348 1.21736V1.81301H3.46784C2.89024 1.81301 2.36679 1.95741 1.89749 2.24621C1.42819 2.53501 1.04915 2.91405 0.760347 3.38335C0.471548 3.85265 0.327148 4.3761 0.327148 4.9537V13.6718C0.327148 14.2494 0.471548 14.7729 0.760347 15.2422C1.04915 15.7115 1.42819 16.0905 1.89749 16.3793C2.36679 16.6681 2.89024 16.8125 3.46784 16.8125H13.4314C14.009 16.8125 14.5324 16.6681 15.0017 16.3793C15.471 16.0905 15.8501 15.7115 16.1389 15.2422C16.4277 14.7729 16.5721 14.2494 16.5721 13.6718V4.9537C16.5721 4.3761 16.4277 3.85265 16.1389 3.38335C15.8501 2.91405 15.471 2.53501 15.0017 2.24621C14.5324 1.95741 14.009 1.81301 13.4314 1.81301ZM3.46784 3.1126H4.06348V4.3039C4.06348 4.4844 4.12666 4.63782 4.25301 4.76417C4.37936 4.89052 4.53278 4.9537 4.71328 4.9537C4.89378 4.9537 5.0472 4.89052 5.17355 4.76417C5.2999 4.63782 5.36308 4.4844 5.36308 4.3039V3.1126H11.5362V4.3039C11.5362 4.4844 11.5993 4.63782 11.7257 4.76417C11.852 4.89052 12.0055 4.9537 12.186 4.9537C12.3665 4.9537 12.5199 4.89052 12.6462 4.76417C12.7726 4.63782 12.8357 4.4844 12.8357 4.3039V3.1126H13.4314C13.9368 3.1126 14.379 3.2931 14.7581 3.6541C15.1371 4.0151 15.3266 4.4483 15.3266 4.9537V5.54934H1.57259V4.9537C1.57259 4.4483 1.76212 4.0151 2.14117 3.6541C2.52021 3.2931 2.96244 3.1126 3.46784 3.1126ZM13.4314 15.5671H3.46784C2.96244 15.5671 2.52021 15.3775 2.14117 14.9985C1.76212 14.6194 1.57259 14.1772 1.57259 13.6718V6.84894H15.3266V13.6718C15.3266 14.1772 15.1371 14.6194 14.7581 14.9985C14.379 15.3775 13.9368 15.5671 13.4314 15.5671ZM5.95873 9.33983C5.95873 9.52033 5.89555 9.66473 5.7692 9.77303C5.64285 9.88133 5.48943 9.93548 5.30893 9.93548H4.06348C3.88298 9.93548 3.73858 9.88133 3.63029 9.77303C3.52199 9.66473 3.46784 9.52033 3.46784 9.33983C3.46784 9.15933 3.52199 9.00591 3.63029 8.87956C3.73858 8.75321 3.88298 8.69003 4.06348 8.69003H5.30893C5.48943 8.69003 5.64285 8.75321 5.7692 8.87956C5.89555 9.00591 5.95873 9.15933 5.95873 9.33983ZM13.4314 9.33983C13.4314 9.52033 13.3772 9.66473 13.2689 9.77303C13.1606 9.88133 13.0162 9.93548 12.8357 9.93548H11.5903C11.4098 9.93548 11.2564 9.88133 11.13 9.77303C11.0037 9.66473 10.9405 9.52033 10.9405 9.33983C10.9405 9.15933 11.0037 9.00591 11.13 8.87956C11.2564 8.75321 11.4098 8.69003 11.5903 8.69003H12.8357C13.0162 8.69003 13.1606 8.75321 13.2689 8.87956C13.3772 9.00591 13.4314 9.15933 13.4314 9.33983ZM9.69506 9.33983C9.69506 9.52033 9.63189 9.66473 9.50554 9.77303C9.37919 9.88133 9.22576 9.93548 9.04526 9.93548H7.79982C7.65542 9.93548 7.52005 9.88133 7.3937 9.77303C7.26735 9.66473 7.20417 9.52033 7.20417 9.33983C7.20417 9.15933 7.26735 9.00591 7.3937 8.87956C7.52005 8.75321 7.65542 8.69003 7.79982 8.69003H9.04526C9.22576 8.69003 9.37919 8.75321 9.50554 8.87956C9.63189 9.00591 9.69506 9.15933 9.69506 9.33983ZM5.95873 13.0762C5.95873 13.2567 5.89555 13.4101 5.7692 13.5364C5.64285 13.6628 5.48943 13.726 5.30893 13.726H4.06348C3.88298 13.726 3.73858 13.6628 3.63029 13.5364C3.52199 13.4101 3.46784 13.2567 3.46784 13.0762C3.46784 12.8957 3.52199 12.7422 3.63029 12.6159C3.73858 12.4895 3.88298 12.4264 4.06348 12.4264H5.30893C5.48943 12.4264 5.64285 12.4895 5.7692 12.6159C5.89555 12.7422 5.95873 12.8957 5.95873 13.0762ZM13.4314 13.0762C13.4314 13.2567 13.3772 13.4101 13.2689 13.5364C13.1606 13.6628 13.0162 13.726 12.8357 13.726H11.5903C11.4098 13.726 11.2564 13.6628 11.13 13.5364C11.0037 13.4101 10.9405 13.2567 10.9405 13.0762C10.9405 12.8957 11.0037 12.7422 11.13 12.6159C11.2564 12.4895 11.4098 12.4264 11.5903 12.4264H12.8357C13.0162 12.4264 13.1606 12.4895 13.2689 12.6159C13.3772 12.7422 13.4314 12.8957 13.4314 13.0762ZM9.69506 13.0762C9.69506 13.2567 9.63189 13.4101 9.50554 13.5364C9.37919 13.6628 9.22576 13.726 9.04526 13.726H7.79982C7.65542 13.726 7.52005 13.6628 7.3937 13.5364C7.26735 13.4101 7.20417 13.2567 7.20417 13.0762C7.20417 12.8957 7.26735 12.7422 7.3937 12.6159C7.52005 12.4895 7.65542 12.4264 7.79982 12.4264H9.04526C9.22576 12.4264 9.37919 12.4895 9.50554 12.6159C9.63189 12.7422 9.69506 12.8957 9.69506 13.0762Z" fill="#24D998"/>
</g>
<defs>
<clipPath id="clip0_1530_25202">
<rect width="16.2449" height="16.2449" fill="white" transform="matrix(1 0 0 -1 0.328125 16.8125)"/>
</clipPath>
</defs>
</svg>
