<svg width="20" height="20" viewBox="0 0 20 20" fill="none" xmlns="http://www.w3.org/2000/svg">
<path d="M10.0001 16.668C11.7682 16.668 13.4639 15.9656 14.7141 14.7153C15.9644 13.4651 16.6667 11.7694 16.6667 10.0013C16.6667 8.23319 15.9644 6.5375 14.7141 5.28726C13.4639 4.03701 11.7682 3.33464 10.0001 3.33464C8.23197 3.33464 6.53628 4.03701 5.28604 5.28726C4.03579 6.5375 3.33341 8.23319 3.33341 10.0013C3.33341 11.7694 4.03579 13.4651 5.28604 14.7153C6.53628 15.9656 8.23197 16.668 10.0001 16.668ZM10.0001 1.66797C11.0944 1.66797 12.1781 1.88352 13.1891 2.30231C14.2002 2.7211 15.1188 3.33492 15.8926 4.10875C16.6665 4.88257 17.2803 5.80123 17.6991 6.81227C18.1179 7.82332 18.3334 8.90695 18.3334 10.0013C18.3334 12.2114 17.4554 14.3311 15.8926 15.8939C14.3298 17.4567 12.2102 18.3346 10.0001 18.3346C5.39175 18.3346 1.66675 14.5846 1.66675 10.0013C1.66675 7.79116 2.54472 5.67155 4.10752 4.10875C5.67033 2.54594 7.78994 1.66797 10.0001 1.66797ZM10.4167 5.83464V10.2096L14.1667 12.4346L13.5417 13.4596L9.16675 10.8346V5.83464H10.4167Z" fill="#686D74"/>
</svg>
