<svg width="32" height="33" viewBox="0 0 32 33" fill="none" xmlns="http://www.w3.org/2000/svg">
    <path d="M9.33334 12.4987V9.83203H28V12.4987H9.33334ZM9.33334 17.832V15.1654H28V17.832H9.33334ZM9.33334 23.1654V20.4987H28V23.1654H9.33334ZM5.33334 12.4987C4.95556 12.4987 4.63912 12.3707 4.384 12.1147C4.12889 11.8587 4.00089 11.5423 4 11.1654C3.99912 10.7885 4.12712 10.472 4.384 10.216C4.64089 9.96003 4.95734 9.83203 5.33334 9.83203C5.70934 9.83203 6.02623 9.96003 6.284 10.216C6.54178 10.472 6.66934 10.7885 6.66667 11.1654C6.664 11.5423 6.536 11.8591 6.28267 12.116C6.02934 12.3729 5.71289 12.5005 5.33334 12.4987ZM5.33334 17.832C4.95556 17.832 4.63912 17.704 4.384 17.448C4.12889 17.192 4.00089 16.8756 4 16.4987C3.99912 16.1218 4.12712 15.8054 4.384 15.5494C4.64089 15.2934 4.95734 15.1654 5.33334 15.1654C5.70934 15.1654 6.02623 15.2934 6.284 15.5494C6.54178 15.8054 6.66934 16.1218 6.66667 16.4987C6.664 16.8756 6.536 17.1925 6.28267 17.4494C6.02934 17.7063 5.71289 17.8338 5.33334 17.832ZM5.33334 23.1654C4.95556 23.1654 4.63912 23.0374 4.384 22.7814C4.12889 22.5254 4.00089 22.2089 4 21.832C3.99912 21.4551 4.12712 21.1387 4.384 20.8827C4.64089 20.6267 4.95734 20.4987 5.33334 20.4987C5.70934 20.4987 6.02623 20.6267 6.284 20.8827C6.54178 21.1387 6.66934 21.4551 6.66667 21.832C6.664 22.2089 6.536 22.5258 6.28267 22.7827C6.02934 23.0396 5.71289 23.1671 5.33334 23.1654Z" fill="#ACB5C0"/>
    </svg>
    