<svg width="24" height="24" viewBox="0 0 24 24" fill="none" xmlns="http://www.w3.org/2000/svg">
    <g clip-path="url(#clip0_1675_16974)">
    <mask id="mask0_1675_16974" style="mask-type:alpha" maskUnits="userSpaceOnUse" x="0" y="0" width="24" height="24">
    <circle cx="12" cy="12" r="12" fill="#C4C4C4"/>
    </mask>
    <g mask="url(#mask0_1675_16974)">
    <path d="M30.9994 0H-5V23.9999H30.9994V0Z" fill="#F0F0F0"/>
    <path d="M30.9997 3H-4.99976V5.99969H30.9997V3Z" fill="#D80027"/>
    <path d="M30.9999 9H-4.99951V11.9997H30.9999V9Z" fill="#D80027"/>
    <path d="M30.9999 15H-4.99951V17.9997H30.9999V15Z" fill="#D80027"/>
    <path d="M30.9999 21H-4.99951V23.9997H30.9999V21Z" fill="#D80027"/>
    <path d="M12.9997 0H-5V12.923H12.9997V0Z" fill="#2E52B2"/>
    <path d="M2.01907 5.29297L1.72918 6.1848H0.791504L1.55023 6.73569L1.26034 7.62745L2.01907 7.07656L2.77731 7.62745L2.48748 6.73569L3.24622 6.1848H2.30847L2.01907 5.29297Z" fill="#F0F0F0"/>
    <path d="M2.30847 9.40348L2.01907 8.51172L1.72918 9.40348H0.791504L1.55023 9.95444L1.26034 10.8462L2.01907 10.2952L2.77731 10.8462L2.48748 9.95444L3.24622 9.40348H2.30847Z" fill="#F0F0F0"/>
    <path d="M2.01907 2.07422L1.72918 2.96611H0.791504L1.55023 3.51707L1.26034 4.40883L2.01907 3.85787L2.77731 4.40883L2.48748 3.51707L3.24622 2.96611H2.30847L2.01907 2.07422Z" fill="#F0F0F0"/>
    <path d="M5.98189 5.29297L5.69207 6.1848H4.75439L5.51305 6.73569L5.2233 7.62745L5.98189 7.07656L6.74027 7.62745L6.45037 6.73569L7.2091 6.1848H6.27143L5.98189 5.29297Z" fill="#F0F0F0"/>
    <path d="M6.27143 9.40348L5.98189 8.51172L5.69207 9.40348H4.75439L5.51305 9.95444L5.2233 10.8462L5.98189 10.2952L6.74027 10.8462L6.45037 9.95444L7.2091 9.40348H6.27143Z" fill="#F0F0F0"/>
    <path d="M10.234 9.40348L9.94454 8.51172L9.65464 9.40348H8.71704L9.47563 9.95444L9.18581 10.8462L9.94454 10.2952L10.7028 10.8462L10.413 9.95444L11.1717 9.40348H10.234Z" fill="#F0F0F0"/>
    <path d="M9.94454 5.29297L9.65464 6.1848H8.71704L9.47563 6.73569L9.18581 7.62745L9.94454 7.07656L10.7028 7.62745L10.413 6.73569L11.1717 6.1848H10.234L9.94454 5.29297Z" fill="#F0F0F0"/>
    <path d="M5.98189 2.07422L5.69207 2.96611H4.75439L5.51305 3.51707L5.2233 4.40883L5.98189 3.85787L6.74027 4.40883L6.45037 3.51707L7.2091 2.96611H6.27143L5.98189 2.07422Z" fill="#F0F0F0"/>
    <path d="M9.94454 2.07422L9.65464 2.96611H8.71704L9.47563 3.51707L9.18581 4.40883L9.94454 3.85787L10.7028 4.40883L10.413 3.51707L11.1717 2.96611H10.234L9.94454 2.07422Z" fill="#F0F0F0"/>
    </g>
    </g>
    <defs>
    <clipPath id="clip0_1675_16974">
    <rect width="24" height="24" fill="white"/>
    </clipPath>
    </defs>
    </svg>
    